<?xml version="1.0" encoding="UTF-8"?>
<!DOCTYPE svg PUBLIC "-//W3C//DTD SVG 1.1//EN" "http://www.w3.org/Graphics/SVG/1.1/DTD/svg11.dtd">
<svg xmlns="http://www.w3.org/2000/svg" viewBox="0 0 333.000000 333.000000" version="1.1" width="40px" height="32px" style="shape-rendering:geometricPrecision; text-rendering:geometricPrecision; image-rendering:optimizeQuality; fill-rule:evenodd; clip-rule:evenodd" xmlns:xlink="http://www.w3.org/1999/xlink">
<g><path style="opacity:0.05" fill="#91a3b0" d="M 140.5,114.5 C 142.966,113.366 145.633,113.199 148.5,114C 145.854,114.497 143.187,114.664 140.5,114.5 Z"/></g>
<g><path style="opacity:0.067" fill="#546776" d="M 137.5,115.5 C 137.897,114.475 138.563,114.308 139.5,115C 138.906,115.464 138.239,115.631 137.5,115.5 Z"/></g>
<g><path style="opacity:0.063" fill="#6d8692" d="M 151.5,115.5 C 150.761,115.631 150.094,115.464 149.5,115C 150.437,114.308 151.103,114.475 151.5,115.5 Z"/></g>
<g><path style="opacity:0.037" fill="#95a0a6" d="M 177.5,115.5 C 178.946,114.387 180.613,114.22 182.5,115C 180.866,115.494 179.199,115.66 177.5,115.5 Z"/></g>
<g><path style="opacity:0.086" fill="#627b86" d="M 135.5,115.5 C 136.833,116.167 136.833,116.167 135.5,115.5 Z"/></g>
<g><path style="opacity:0.075" fill="#5c777f" d="M 151.5,115.5 C 152.492,115.328 153.158,115.662 153.5,116.5C 152.508,116.672 151.842,116.338 151.5,115.5 Z"/></g>
<g><path style="opacity:0.008" fill="#4c6571" d="M 171.5,116.5 C 172.601,115.402 173.934,115.235 175.5,116C 174.207,116.49 172.873,116.657 171.5,116.5 Z"/></g>
<g><path style="opacity:0.082" fill="#526d7a" d="M 187.5,116.5 C 186.448,116.649 185.448,116.483 184.5,116C 185.749,115.26 186.749,115.427 187.5,116.5 Z"/></g>
<g><path style="opacity:0.016" fill="#394c52" d="M 133.5,117.5 C 133.842,116.662 134.508,116.328 135.5,116.5C 135.158,117.338 134.492,117.672 133.5,117.5 Z"/></g>
<g><path style="opacity:0.075" fill="#4a5f69" d="M 153.5,116.5 C 154.833,117.167 154.833,117.167 153.5,116.5 Z"/></g>
<g><path style="opacity:0.063" fill="#535e62" d="M 171.5,116.5 C 171.103,117.525 170.437,117.692 169.5,117C 170.094,116.536 170.761,116.369 171.5,116.5 Z"/></g>
<g><path style="opacity:0.086" fill="#466064" d="M 187.5,116.5 C 188.239,116.369 188.906,116.536 189.5,117C 188.563,117.692 187.897,117.525 187.5,116.5 Z"/></g>
<g><path style="opacity:0.071" fill="#485f6e" d="M 133.5,117.5 C 132.833,118.167 132.833,118.167 133.5,117.5 Z"/></g>
<g><path style="opacity:0.059" fill="#88a1ac" d="M 167.5,117.5 C 168.833,118.167 168.833,118.167 167.5,117.5 Z"/></g>
<g><path style="opacity:0.075" fill="#7a98a5" d="M 191.5,118.5 C 190.833,117.167 190.833,117.167 191.5,118.5 Z"/></g>
<g><path style="opacity:0.075" fill="#496071" d="M 132.5,118.5 C 131.833,119.167 131.833,119.167 132.5,118.5 Z"/></g>
<g><path style="opacity:0.997" fill="#fdfdfd" d="M 235.5,267.5 C 234.5,267.833 233.833,268.5 233.5,269.5C 227.179,274.956 219.845,278.456 211.5,280C 195.826,281.902 180.159,281.902 164.5,280C 148.176,274.253 135.342,264.086 126,249.5C 119.761,237.791 114.095,225.791 109,213.5C 104.927,198.749 103.593,183.749 105,168.5C 108.962,159.289 114.962,157.622 123,163.5C 124.414,174.115 125.247,184.781 125.5,195.5C 126.5,195.5 127.5,195.5 128.5,195.5C 128.333,174.831 128.5,154.164 129,133.5C 131.654,119.76 139.488,115.26 152.5,120C 155.09,123.101 156.923,126.601 158,130.5C 158.5,142.162 158.667,153.829 158.5,165.5C 160.167,165.5 161.833,165.5 163.5,165.5C 163.078,152.439 163.578,139.439 165,126.5C 168.519,121.238 173.519,118.572 180,118.5C 186.113,118.281 190.446,120.947 193,126.5C 193.5,139.162 193.667,151.829 193.5,164.5C 194.5,164.5 195.5,164.5 196.5,164.5C 196.333,153.495 196.5,142.495 197,131.5C 200.979,124.944 206.813,122.444 214.5,124C 220.533,126.865 224.033,131.698 225,138.5C 225.333,146.833 225.667,155.167 226,163.5C 227,164.833 228,164.833 229,163.5C 229.333,155.167 229.667,146.833 230,138.5C 232.919,132.975 237.419,131.142 243.5,133C 248.052,134.588 250.885,137.755 252,142.5C 255.201,168.409 256.201,194.409 255,220.5C 253.054,238.202 246.554,253.869 235.5,267.5 Z"/></g>
<g><path style="opacity:0.016" fill="#637780" d="M 157.5,120.5 C 156.711,120.217 156.044,119.717 155.5,119C 156.816,118.472 157.483,118.972 157.5,120.5 Z"/></g>
<g><path style="opacity:0.086" fill="#5a737e" d="M 167.5,118.5 C 166.833,119.167 166.833,119.167 167.5,118.5 Z"/></g>
<g><path style="opacity:0.082" fill="#546c79" d="M 191.5,118.5 C 192.167,118.5 192.5,118.833 192.5,119.5C 192.167,119.167 191.833,118.833 191.5,118.5 Z"/></g>
<g><path style="opacity:0.086" fill="#5a6e74" d="M 131.5,119.5 C 130.833,120.167 130.833,120.167 131.5,119.5 Z"/></g>
<g><path style="opacity:0.075" fill="#4b626f" d="M 192.5,119.5 C 193.167,119.5 193.5,119.833 193.5,120.5C 193.167,120.167 192.833,119.833 192.5,119.5 Z"/></g>
<g><path style="opacity:0.082" fill="#5a707a" d="M 205.5,120.5 C 208.64,119.359 211.973,119.192 215.5,120C 212.183,120.498 208.85,120.665 205.5,120.5 Z"/></g>
<g><path style="opacity:0.082" fill="#587278" d="M 130.5,120.5 C 129.833,121.167 129.833,121.167 130.5,120.5 Z"/></g>
<g><path style="opacity:0.082" fill="#5d7480" d="M 157.5,120.5 C 158.167,120.5 158.5,120.833 158.5,121.5C 158.167,121.167 157.833,120.833 157.5,120.5 Z"/></g>
<g><path style="opacity:0.008" fill="#244151" d="M 164.5,120.5 C 165.833,121.167 165.833,121.167 164.5,120.5 Z"/></g>
<g><path style="opacity:0.075" fill="#73868f" d="M 193.5,120.5 C 194.167,120.5 194.5,120.833 194.5,121.5C 194.167,121.167 193.833,120.833 193.5,120.5 Z"/></g>
<g><path style="opacity:0.051" fill="#4e6574" d="M 202.5,121.5 C 202.897,120.475 203.563,120.308 204.5,121C 203.906,121.464 203.239,121.631 202.5,121.5 Z"/></g>
<g><path style="opacity:0.016" fill="#82939b" d="M 218.5,121.5 C 217.761,121.631 217.094,121.464 216.5,121C 217.437,120.308 218.103,120.475 218.5,121.5 Z"/></g>
<g><path style="opacity:0.063" fill="#405f70" d="M 164.5,121.5 C 163.833,122.167 163.833,122.167 164.5,121.5 Z"/></g>
<g><path style="opacity:0.086" fill="#5e7b86" d="M 200.5,121.5 C 201.833,122.167 201.833,122.167 200.5,121.5 Z"/></g>
<g><path style="opacity:0.071" fill="#4a697c" d="M 218.5,121.5 C 219.167,121.5 219.5,121.833 219.5,122.5C 219.167,122.167 218.833,121.833 218.5,121.5 Z"/></g>
<g><path style="opacity:0.047" fill="#506a77" d="M 129.5,121.5 C 129.672,122.492 129.338,123.158 128.5,123.5C 128.328,122.508 128.662,121.842 129.5,121.5 Z"/></g>
<g><path style="opacity:0.051" fill="#566d7e" d="M 158.5,121.5 C 159.338,121.842 159.672,122.508 159.5,123.5C 158.662,123.158 158.328,122.492 158.5,121.5 Z"/></g>
<g><path style="opacity:0.082" fill="#708289" d="M 163.5,122.5 C 162.833,123.167 162.833,123.167 163.5,122.5 Z"/></g>
<g><path style="opacity:0.027" fill="#4d6c78" d="M 194.5,121.5 C 195.338,121.842 195.672,122.508 195.5,123.5C 194.662,123.158 194.328,122.492 194.5,121.5 Z"/></g>
<g><path style="opacity:0.063" fill="#8396a3" d="M 198.5,122.5 C 199.833,123.167 199.833,123.167 198.5,122.5 Z"/></g>
<g><path style="opacity:0.051" fill="#687f8d" d="M 219.5,122.5 C 220.492,122.328 221.158,122.662 221.5,123.5C 220.508,123.672 219.842,123.338 219.5,122.5 Z"/></g>
<g><path style="opacity:0.082" fill="#526a79" d="M 198.5,123.5 C 197.833,124.167 197.833,124.167 198.5,123.5 Z"/></g>
<g><path style="opacity:0.035" fill="#93aab6" d="M 221.5,123.5 C 222.167,123.5 222.5,123.833 222.5,124.5C 222.167,124.167 221.833,123.833 221.5,123.5 Z"/></g>
<g><path style="opacity:0.047" fill="#4d6b73" d="M 128.5,123.5 C 128.672,124.492 128.338,125.158 127.5,125.5C 127.328,124.508 127.662,123.842 128.5,123.5 Z"/></g>
<g><path style="opacity:0.078" fill="#64747e" d="M 159.5,123.5 C 160.338,123.842 160.672,124.508 160.5,125.5C 159.662,125.158 159.328,124.492 159.5,123.5 Z"/></g>
<g><path style="opacity:0.082" fill="#637a84" d="M 161.5,124.5 C 162.833,125.167 162.833,125.167 161.5,124.5 Z"/></g>
<g><path style="opacity:0.063" fill="#547082" d="M 195.5,123.5 C 196.167,123.833 196.833,124.167 197.5,124.5C 196.377,125.757 195.711,125.424 195.5,123.5 Z"/></g>
<g><path style="opacity:0.039" fill="#929ea3" d="M 222.5,124.5 C 223.833,125.167 223.833,125.167 222.5,124.5 Z"/></g>
<g><path style="opacity:0.082" fill="#6c838e" d="M 127.5,125.5 C 127.631,126.239 127.464,126.906 127,127.5C 126.308,126.563 126.475,125.897 127.5,125.5 Z"/></g>
<g><path style="opacity:0.055" fill="#4d6f83" d="M 160.5,125.5 C 160.833,125.5 161.167,125.5 161.5,125.5C 161.167,128.167 160.833,128.167 160.5,125.5 Z"/></g>
<g><path style="opacity:0.059" fill="#3d5763" d="M 224.5,127.5 C 223.833,126.167 223.833,126.167 224.5,127.5 Z"/></g>
<g><path style="opacity:0.075" fill="#788f99" d="M 224.5,127.5 C 225.833,128.167 225.833,128.167 224.5,127.5 Z"/></g>
<g><path style="opacity:0.02" fill="#425e69" d="M 234.5,129.5 C 237.64,128.359 240.973,128.192 244.5,129C 241.183,129.498 237.85,129.665 234.5,129.5 Z"/></g>
<g><path style="opacity:0.082" fill="#678488" d="M 125.5,128.5 C 126.573,129.251 126.74,130.251 126,131.5C 125.517,130.552 125.351,129.552 125.5,128.5 Z"/></g>
<g><path style="opacity:0.078" fill="#71868e" d="M 225.5,129.5 C 226.833,130.167 226.833,130.167 225.5,129.5 Z"/></g>
<g><path style="opacity:0.027" fill="#46626d" d="M 232.5,130.5 C 232.842,129.662 233.508,129.328 234.5,129.5C 234.158,130.338 233.492,130.672 232.5,130.5 Z"/></g>
<g><path style="opacity:0.02" fill="#7f95a3" d="M 247.5,130.5 C 246.761,130.631 246.094,130.464 245.5,130C 246.437,129.308 247.103,129.475 247.5,130.5 Z"/></g>
<g><path style="opacity:0.059" fill="#59717e" d="M 230.5,131.5 C 230.842,130.662 231.508,130.328 232.5,130.5C 232.158,131.338 231.492,131.672 230.5,131.5 Z"/></g>
<g><path style="opacity:0.082" fill="#617882" d="M 247.5,130.5 C 248.167,130.5 248.5,130.833 248.5,131.5C 248.167,131.167 247.833,130.833 247.5,130.5 Z"/></g>
<g><path style="opacity:0.067" fill="#8094a1" d="M 230.5,131.5 C 229.833,132.167 229.833,132.167 230.5,131.5 Z"/></g>
<g><path style="opacity:0.012" fill="#778a99" d="M 248.5,131.5 C 249.492,131.328 250.158,131.662 250.5,132.5C 249.508,132.672 248.842,132.338 248.5,131.5 Z"/></g>
<g><path style="opacity:0.067" fill="#587285" d="M 227.5,133.5 C 226.475,133.103 226.308,132.437 227,131.5C 227.464,132.094 227.631,132.761 227.5,133.5 Z"/></g>
<g><path style="opacity:0.078" fill="#728586" d="M 229.5,132.5 C 228.833,133.167 228.833,133.167 229.5,132.5 Z"/></g>
<g><path style="opacity:0.047" fill="#8da7c4" d="M 250.5,132.5 C 251.167,132.5 251.5,132.833 251.5,133.5C 251.167,133.167 250.833,132.833 250.5,132.5 Z"/></g>
<g><path style="opacity:0.059" fill="#88aaae" d="M 227.5,133.5 C 227.833,133.5 228.167,133.5 228.5,133.5C 228.315,134.17 227.981,134.17 227.5,133.5 Z"/></g>
<g><path style="opacity:0.027" fill="#4f687b" d="M 251.5,133.5 C 252.338,133.842 252.672,134.508 252.5,135.5C 251.662,135.158 251.328,134.492 251.5,133.5 Z"/></g>
<g><path style="opacity:0.082" fill="#5b777f" d="M 252.5,135.5 C 253.167,135.5 253.5,135.833 253.5,136.5C 253.167,136.167 252.833,135.833 252.5,135.5 Z"/></g>
<g><path style="opacity:0.035" fill="#516672" d="M 253.5,136.5 C 254.338,136.842 254.672,137.508 254.5,138.5C 253.662,138.158 253.328,137.492 253.5,136.5 Z"/></g>
<g><path style="opacity:0.071" fill="#5d7883" d="M 254.5,138.5 C 255.525,138.897 255.692,139.563 255,140.5C 254.536,139.906 254.369,139.239 254.5,138.5 Z"/></g>
<g><path style="opacity:0.086" fill="#5f7681" d="M 123.5,159.5 C 124.33,151.01 124.83,142.343 125,133.5C 125.832,142.518 125.665,151.518 124.5,160.5C 123.893,160.376 123.56,160.043 123.5,159.5 Z"/></g>
<g><path style="opacity:0.02" fill="#45606a" d="M 255.5,141.5 C 256.598,142.601 256.765,143.934 256,145.5C 255.51,144.207 255.343,142.873 255.5,141.5 Z"/></g>
<g><path style="opacity:0.082" fill="#5d7685" d="M 256.5,148.5 C 257.634,150.966 257.801,153.633 257,156.5C 256.503,153.854 256.336,151.187 256.5,148.5 Z"/></g>
<g><path style="opacity:0.051" fill="#91a7b3" d="M 112.5,156.5 C 113.601,155.402 114.934,155.235 116.5,156C 115.207,156.49 113.873,156.657 112.5,156.5 Z"/></g>
<g><path style="opacity:0.075" fill="#5e747f" d="M 109.5,157.5 C 109.897,156.475 110.563,156.308 111.5,157C 110.906,157.464 110.239,157.631 109.5,157.5 Z"/></g>
<g><path style="opacity:0.082" fill="#596f79" d="M 117.5,157.5 C 117.897,156.475 118.563,156.308 119.5,157C 118.906,157.464 118.239,157.631 117.5,157.5 Z"/></g>
<g><path style="opacity:0.027" fill="#4d6a76" d="M 107.5,158.5 C 107.842,157.662 108.508,157.328 109.5,157.5C 109.158,158.338 108.492,158.672 107.5,158.5 Z"/></g>
<g><path style="opacity:0.078" fill="#536b7c" d="M 120.5,157.5 C 121.833,158.167 121.833,158.167 120.5,157.5 Z"/></g>
<g><path style="opacity:0.075" fill="#78888c" d="M 107.5,158.5 C 106.833,159.167 106.833,159.167 107.5,158.5 Z"/></g>
<g><path style="opacity:0.059" fill="#85a1a9" d="M 123.5,159.5 C 122.833,158.167 122.833,158.167 123.5,159.5 Z"/></g>
<g><path style="opacity:0.075" fill="#4b6670" d="M 106.5,159.5 C 105.833,160.167 105.833,160.167 106.5,159.5 Z"/></g>
<g><path style="opacity:0.071" fill="#48646e" d="M 105.5,160.5 C 104.833,161.167 104.833,161.167 105.5,160.5 Z"/></g>
<g><path style="opacity:0.078" fill="#748c91" d="M 104.5,161.5 C 103.833,162.167 103.833,162.167 104.5,161.5 Z"/></g>
<g><path style="opacity:0.075" fill="#4e697b" d="M 102.5,163.5 C 103.833,164.167 103.833,164.167 102.5,163.5 Z"/></g>
<g><path style="opacity:0.082" fill="#627883" d="M 257.5,159.5 C 258.638,162.304 258.805,165.304 258,168.5C 257.502,165.518 257.335,162.518 257.5,159.5 Z"/></g>
<g><path style="opacity:0.043" fill="#465b6b" d="M 101.5,165.5 C 102.525,165.897 102.692,166.563 102,167.5C 101.536,166.906 101.369,166.239 101.5,165.5 Z"/></g>
<g><path style="opacity:0.024" fill="#476570" d="M 100.5,168.5 C 101.598,169.601 101.765,170.934 101,172.5C 100.51,171.207 100.343,169.873 100.5,168.5 Z"/></g>
<g><path style="opacity:0.082" fill="#5f7c89" d="M 258.5,173.5 C 259.643,176.976 259.81,180.642 259,184.5C 258.501,180.848 258.335,177.182 258.5,173.5 Z"/></g>
<g><path style="opacity:0.082" fill="#57737d" d="M 100.5,185.5 C 101.622,187.288 101.789,189.288 101,191.5C 100.505,189.527 100.338,187.527 100.5,185.5 Z"/></g>
<g><path style="opacity:0.006" fill="#234d5f" d="M 258.5,185.5 C 259.613,186.946 259.78,188.613 259,190.5C 258.506,188.866 258.34,187.199 258.5,185.5 Z"/></g>
<g><path style="opacity:0.012" fill="#79919b" d="M 101.5,194.5 C 102.613,195.946 102.78,197.613 102,199.5C 101.506,197.866 101.34,196.199 101.5,194.5 Z"/></g>
<g><path style="opacity:0.02" fill="#758892" d="M 102.5,200.5 C 103.598,201.601 103.765,202.934 103,204.5C 102.51,203.207 102.343,201.873 102.5,200.5 Z"/></g>
<g><path style="opacity:0.012" fill="#778e9b" d="M 103.5,205.5 C 104.598,206.601 104.765,207.934 104,209.5C 103.51,208.207 103.343,206.873 103.5,205.5 Z"/></g>
<g><path style="opacity:0.082" fill="#64818c" d="M 104.5,210.5 C 105.573,211.251 105.74,212.251 105,213.5C 104.517,212.552 104.351,211.552 104.5,210.5 Z"/></g>
<g><path style="opacity:0.035" fill="#7f97a2" d="M 106.5,216.5 C 105.475,216.103 105.308,215.437 106,214.5C 106.464,215.094 106.631,215.761 106.5,216.5 Z"/></g>
<g><path style="opacity:0.012" fill="#818f96" d="M 106.5,216.5 C 107.338,216.842 107.672,217.508 107.5,218.5C 106.662,218.158 106.328,217.492 106.5,216.5 Z"/></g>
<g><path style="opacity:0.059" fill="#627c8c" d="M 258.5,209.5 C 259.645,213.311 259.812,217.311 259,221.5C 258.501,217.514 258.334,213.514 258.5,209.5 Z"/></g>
<g><path style="opacity:0.063" fill="#667e85" d="M 107.5,218.5 C 108.525,218.897 108.692,219.563 108,220.5C 107.536,219.906 107.369,219.239 107.5,218.5 Z"/></g>
<g><path style="opacity:0.075" fill="#7a8c95" d="M 108.5,221.5 C 109.833,222.167 109.833,222.167 108.5,221.5 Z"/></g>
<g><path style="opacity:0.082" fill="#5f7379" d="M 109.5,223.5 C 110.833,224.167 110.833,224.167 109.5,223.5 Z"/></g>
<g><path style="opacity:0.043" fill="#74898e" d="M 110.5,225.5 C 111.525,225.897 111.692,226.563 111,227.5C 110.536,226.906 110.369,226.239 110.5,225.5 Z"/></g>
<g><path style="opacity:0.027" fill="#707b8c" d="M 257.5,223.5 C 258.613,224.946 258.78,226.613 258,228.5C 257.506,226.866 257.34,225.199 257.5,223.5 Z"/></g>
<g><path style="opacity:0.086" fill="#62818b" d="M 111.5,228.5 C 112.833,229.167 112.833,229.167 111.5,228.5 Z"/></g>
<g><path style="opacity:0.039" fill="#7b929d" d="M 113.5,232.5 C 112.475,232.103 112.308,231.437 113,230.5C 113.464,231.094 113.631,231.761 113.5,232.5 Z"/></g>
<g><path style="opacity:0.082" fill="#647682" d="M 256.5,230.5 C 257.573,231.251 257.74,232.251 257,233.5C 256.517,232.552 256.351,231.552 256.5,230.5 Z"/></g>
<g><path style="opacity:0.082" fill="#536c7a" d="M 113.5,232.5 C 114.525,232.897 114.692,233.563 114,234.5C 113.536,233.906 113.369,233.239 113.5,232.5 Z"/></g>
<g><path style="opacity:0.082" fill="#637b87" d="M 255.5,234.5 C 256.573,235.251 256.74,236.251 256,237.5C 255.517,236.552 255.351,235.552 255.5,234.5 Z"/></g>
<g><path style="opacity:0.055" fill="#748494" d="M 114.5,235.5 C 115.525,235.897 115.692,236.563 115,237.5C 114.536,236.906 114.369,236.239 114.5,235.5 Z"/></g>
<g><path style="opacity:0.082" fill="#628598" d="M 115.5,238.5 C 116.833,239.167 116.833,239.167 115.5,238.5 Z"/></g>
<g><path style="opacity:0.047" fill="#7990a0" d="M 254.5,238.5 C 255.525,238.897 255.692,239.563 255,240.5C 254.536,239.906 254.369,239.239 254.5,238.5 Z"/></g>
<g><path style="opacity:0.082" fill="#70858f" d="M 116.5,240.5 C 117.833,241.167 117.833,241.167 116.5,240.5 Z"/></g>
<g><path style="opacity:0.086" fill="#66818d" d="M 117.5,242.5 C 118.833,243.167 118.833,243.167 117.5,242.5 Z"/></g>
<g><path style="opacity:0.039" fill="#7f9099" d="M 253.5,243.5 C 253.369,242.761 253.536,242.094 254,241.5C 254.692,242.437 254.525,243.103 253.5,243.5 Z"/></g>
<g><path style="opacity:0.075" fill="#7a98a5" d="M 119.5,245.5 C 118.833,244.167 118.833,244.167 119.5,245.5 Z"/></g>
<g><path style="opacity:0.078" fill="#425f70" d="M 253.5,243.5 C 253.631,244.239 253.464,244.906 253,245.5C 252.308,244.563 252.475,243.897 253.5,243.5 Z"/></g>
<g><path style="opacity:0.031" fill="#748693" d="M 119.5,245.5 C 120.338,245.842 120.672,246.508 120.5,247.5C 119.662,247.158 119.328,246.492 119.5,245.5 Z"/></g>
<g><path style="opacity:0.082" fill="#546a7a" d="M 120.5,247.5 C 121.833,248.167 121.833,248.167 120.5,247.5 Z"/></g>
<g><path style="opacity:0.071" fill="#637483" d="M 251.5,246.5 C 252.525,246.897 252.692,247.563 252,248.5C 251.536,247.906 251.369,247.239 251.5,246.5 Z"/></g>
<g><path style="opacity:0.075" fill="#759199" d="M 122.5,250.5 C 121.833,249.167 121.833,249.167 122.5,250.5 Z"/></g>
<g><path style="opacity:0.004" fill="#899ba3" d="M 250.5,251.5 C 250.369,250.761 250.536,250.094 251,249.5C 251.692,250.437 251.525,251.103 250.5,251.5 Z"/></g>
<g><path style="opacity:0.031" fill="#76888b" d="M 122.5,250.5 C 123.338,250.842 123.672,251.508 123.5,252.5C 122.662,252.158 122.328,251.492 122.5,250.5 Z"/></g>
<g><path style="opacity:0.082" fill="#6b899a" d="M 123.5,252.5 C 124.167,252.5 124.5,252.833 124.5,253.5C 124.167,253.167 123.833,252.833 123.5,252.5 Z"/></g>
<g><path style="opacity:0.02" fill="#80939b" d="M 250.5,251.5 C 250.672,252.492 250.338,253.158 249.5,253.5C 249.328,252.508 249.662,251.842 250.5,251.5 Z"/></g>
<g><path style="opacity:0.004" fill="#81949c" d="M 124.5,253.5 C 125.338,253.842 125.672,254.508 125.5,255.5C 124.662,255.158 124.328,254.492 124.5,253.5 Z"/></g>
<g><path style="opacity:0.071" fill="#667e8f" d="M 249.5,253.5 C 249.672,254.492 249.338,255.158 248.5,255.5C 248.328,254.508 248.662,253.842 249.5,253.5 Z"/></g>
<g><path style="opacity:0.063" fill="#8298a8" d="M 125.5,255.5 C 126.167,255.5 126.5,255.833 126.5,256.5C 126.167,256.167 125.833,255.833 125.5,255.5 Z"/></g>
<g><path style="opacity:0.082" fill="#617d8f" d="M 126.5,256.5 C 127.167,256.5 127.5,256.833 127.5,257.5C 127.167,257.167 126.833,256.833 126.5,256.5 Z"/></g>
<g><path style="opacity:0.051" fill="#6e8492" d="M 248.5,255.5 C 248.672,256.492 248.338,257.158 247.5,257.5C 247.328,256.508 247.662,255.842 248.5,255.5 Z"/></g>
<g><path style="opacity:0.059" fill="#3e5b6c" d="M 127.5,257.5 C 128.833,258.167 128.833,258.167 127.5,257.5 Z"/></g>
<g><path style="opacity:0.024" fill="#7d8e97" d="M 247.5,257.5 C 247.672,258.492 247.338,259.158 246.5,259.5C 246.328,258.508 246.662,257.842 247.5,257.5 Z"/></g>
<g><path style="opacity:0.02" fill="#9badb6" d="M 129.5,260.5 C 128.833,259.167 128.833,259.167 129.5,260.5 Z"/></g>
<g><path style="opacity:0.082" fill="#586f7b" d="M 246.5,259.5 C 245.833,260.167 245.833,260.167 246.5,259.5 Z"/></g>
<g><path style="opacity:0.035" fill="#93a6b3" d="M 129.5,260.5 C 130.167,260.5 130.5,260.833 130.5,261.5C 130.167,261.167 129.833,260.833 129.5,260.5 Z"/></g>
<g><path style="opacity:0.055" fill="#87898a" d="M 130.5,261.5 C 131.167,261.5 131.5,261.833 131.5,262.5C 131.167,262.167 130.833,261.833 130.5,261.5 Z"/></g>
<g><path style="opacity:0.078" fill="#6f8d94" d="M 131.5,262.5 C 132.167,262.5 132.5,262.833 132.5,263.5C 132.167,263.167 131.833,262.833 131.5,262.5 Z"/></g>
<g><path style="opacity:0.082" fill="#5f757a" d="M 243.5,264.5 C 243.272,262.645 243.939,261.812 245.5,262C 244.934,262.995 244.267,263.828 243.5,264.5 Z"/></g>
<g><path style="opacity:0.086" fill="#5c717b" d="M 132.5,263.5 C 133.167,263.5 133.5,263.833 133.5,264.5C 133.167,264.167 132.833,263.833 132.5,263.5 Z"/></g>
<g><path style="opacity:0.067" fill="#465e69" d="M 133.5,264.5 C 134.167,264.5 134.5,264.833 134.5,265.5C 134.167,265.167 133.833,264.833 133.5,264.5 Z"/></g>
<g><path style="opacity:0.051" fill="#89a2ab" d="M 243.5,264.5 C 242.833,265.167 242.833,265.167 243.5,264.5 Z"/></g>
<g><path style="opacity:0.067" fill="#43616b" d="M 134.5,265.5 C 135.167,265.5 135.5,265.833 135.5,266.5C 135.167,266.167 134.833,265.833 134.5,265.5 Z"/></g>
<g><path style="opacity:0.082" fill="#677b88" d="M 242.5,265.5 C 241.833,266.167 241.833,266.167 242.5,265.5 Z"/></g>
<g><path style="opacity:0.082" fill="#58717c" d="M 135.5,266.5 C 136.167,266.5 136.5,266.833 136.5,267.5C 136.167,267.167 135.833,266.833 135.5,266.5 Z"/></g>
<g><path style="opacity:0.075" fill="#4b6774" d="M 241.5,266.5 C 240.833,267.167 240.833,267.167 241.5,266.5 Z"/></g>
<g><path style="opacity:0.078" fill="#6f848e" d="M 136.5,267.5 C 137.167,267.5 137.5,267.833 137.5,268.5C 137.167,268.167 136.833,267.833 136.5,267.5 Z"/></g>
<g><path style="opacity:0.082" fill="#6a888f" d="M 137.5,268.5 C 138.833,269.167 138.833,269.167 137.5,268.5 Z"/></g>
<g><path style="opacity:0.016" fill="#1b3a3c" d="M 235.5,267.5 C 235.5,268.833 234.833,269.5 233.5,269.5C 233.833,268.5 234.5,267.833 235.5,267.5 Z"/></g>
<g><path style="opacity:0.02" fill="#9bb9c0" d="M 239.5,268.5 C 240.833,269.167 240.833,269.167 239.5,268.5 Z"/></g>
<g><path style="opacity:0.027" fill="#98a4a9" d="M 239.5,269.5 C 238.833,270.167 238.833,270.167 239.5,269.5 Z"/></g>
<g><path style="opacity:0.016" fill="#486471" d="M 141.5,271.5 C 140.761,271.631 140.094,271.464 139.5,271C 140.437,270.308 141.103,270.475 141.5,271.5 Z"/></g>
<g><path style="opacity:0.047" fill="#8da1ae" d="M 238.5,270.5 C 237.833,271.167 237.833,271.167 238.5,270.5 Z"/></g>
<g><path style="opacity:0.067" fill="#435a64" d="M 141.5,271.5 C 142.167,271.5 142.5,271.833 142.5,272.5C 142.167,272.167 141.833,271.833 141.5,271.5 Z"/></g>
<g><path style="opacity:0.035" fill="#7d8f9c" d="M 237.5,271.5 C 237.217,272.289 236.717,272.956 236,273.5C 235.472,272.184 235.972,271.517 237.5,271.5 Z"/></g>
<g><path style="opacity:0.078" fill="#768994" d="M 142.5,272.5 C 143.167,272.5 143.5,272.833 143.5,273.5C 143.167,273.167 142.833,272.833 142.5,272.5 Z"/></g>
<g><path style="opacity:0.035" fill="#4f6676" d="M 143.5,273.5 C 144.492,273.328 145.158,273.662 145.5,274.5C 144.508,274.672 143.842,274.338 143.5,273.5 Z"/></g>
<g><path style="opacity:0.063" fill="#3f5665" d="M 233.5,273.5 C 234.833,274.167 234.833,274.167 233.5,273.5 Z"/></g>
<g><path style="opacity:0.078" fill="#506a78" d="M 145.5,274.5 C 146.167,274.5 146.5,274.833 146.5,275.5C 146.167,275.167 145.833,274.833 145.5,274.5 Z"/></g>
<g><path style="opacity:0.082" fill="#68818c" d="M 233.5,274.5 C 232.833,275.167 232.833,275.167 233.5,274.5 Z"/></g>
<g><path style="opacity:0.024" fill="#728890" d="M 230.5,276.5 C 230.842,275.662 231.508,275.328 232.5,275.5C 232.158,276.338 231.492,276.672 230.5,276.5 Z"/></g>
<g><path style="opacity:0.082" fill="#627b8f" d="M 146.5,275.5 C 148.153,275.66 149.486,276.326 150.5,277.5C 148.62,277.771 147.287,277.104 146.5,275.5 Z"/></g>
<g><path style="opacity:0.086" fill="#5d7d89" d="M 230.5,276.5 C 229.833,277.167 229.833,277.167 230.5,276.5 Z"/></g>
<g><path style="opacity:0.082" fill="#5f7178" d="M 150.5,277.5 C 151.167,277.5 151.5,277.833 151.5,278.5C 151.167,278.167 150.833,277.833 150.5,277.5 Z"/></g>
<g><path style="opacity:0.082" fill="#676d6f" d="M 227.5,277.5 C 228.833,278.167 228.833,278.167 227.5,277.5 Z"/></g>
<g><path style="opacity:0.082" fill="#6f8693" d="M 151.5,278.5 C 152.492,278.328 153.158,278.662 153.5,279.5C 152.508,279.672 151.842,279.338 151.5,278.5 Z"/></g>
<g><path style="opacity:0.035" fill="#7b93a1" d="M 227.5,278.5 C 227.103,279.525 226.437,279.692 225.5,279C 226.094,278.536 226.761,278.369 227.5,278.5 Z"/></g>
<g><path style="opacity:0.071" fill="#84949c" d="M 153.5,279.5 C 154.492,279.328 155.158,279.662 155.5,280.5C 154.508,280.672 153.842,280.338 153.5,279.5 Z"/></g>
<g><path style="opacity:0.082" fill="#697c87" d="M 223.5,279.5 C 224.833,280.167 224.833,280.167 223.5,279.5 Z"/></g>
<g><path style="opacity:0.071" fill="#77919f" d="M 155.5,280.5 C 156.552,280.351 157.552,280.517 158.5,281C 157.251,281.74 156.251,281.573 155.5,280.5 Z"/></g>
<g><path style="opacity:0.035" fill="#7d94a6" d="M 220.5,281.5 C 220.897,280.475 221.563,280.308 222.5,281C 221.906,281.464 221.239,281.631 220.5,281.5 Z"/></g>
<g><path style="opacity:0.059" fill="#4f626e" d="M 161.5,282.5 C 160.761,282.631 160.094,282.464 159.5,282C 160.437,281.308 161.103,281.475 161.5,282.5 Z"/></g>
<g><path style="opacity:0.086" fill="#5e7c84" d="M 216.5,282.5 C 217.251,281.427 218.251,281.26 219.5,282C 218.552,282.483 217.552,282.649 216.5,282.5 Z"/></g>
<g><path style="opacity:0.047" fill="#83929c" d="M 161.5,282.5 C 162.552,282.351 163.552,282.517 164.5,283C 163.251,283.74 162.251,283.573 161.5,282.5 Z"/></g>
<g><path style="opacity:0.082" fill="#617d82" d="M 212.5,283.5 C 213.251,282.427 214.251,282.26 215.5,283C 214.552,283.483 213.552,283.649 212.5,283.5 Z"/></g>
<g><path style="opacity:0.004" fill="#3f5964" d="M 166.5,284.5 C 167.601,283.402 168.934,283.235 170.5,284C 169.207,284.49 167.873,284.657 166.5,284.5 Z"/></g>
<g><path style="opacity:0.086" fill="#607683" d="M 204.5,284.5 C 206.288,283.378 208.288,283.211 210.5,284C 208.527,284.495 206.527,284.662 204.5,284.5 Z"/></g>
<g><path style="opacity:0.086" fill="#677e8b" d="M 172.5,285.5 C 181.657,284.342 190.991,284.176 200.5,285C 191.173,285.5 181.839,285.666 172.5,285.5 Z"/></g>
</svg>
