<?xml version="1.0" encoding="UTF-8"?>
<!DOCTYPE svg PUBLIC "-//W3C//DTD SVG 1.1//EN" "http://www.w3.org/Graphics/SVG/1.1/DTD/svg11.dtd">
<svg xmlns="http://www.w3.org/2000/svg" viewBox="0 0 333.000000 333.000000" version="1.1" width="32px" height="32px" style="shape-rendering:geometricPrecision; text-rendering:geometricPrecision; image-rendering:optimizeQuality; fill-rule:evenodd; clip-rule:evenodd" xmlns:xlink="http://www.w3.org/1999/xlink">
<g><path style="opacity:0.051" fill="#90a2b0" d="M 134.5,114.5 C 136.966,113.366 139.633,113.199 142.5,114C 139.854,114.497 137.187,114.664 134.5,114.5 Z"/></g>
<g><path style="opacity:0.082" fill="#617482" d="M 130.5,115.5 C 131.251,114.427 132.251,114.26 133.5,115C 132.552,115.483 131.552,115.649 130.5,115.5 Z"/></g>
<g><path style="opacity:0.071" fill="#5a7581" d="M 146.5,115.5 C 145.448,115.649 144.448,115.483 143.5,115C 144.749,114.26 145.749,114.427 146.5,115.5 Z"/></g>
<g><path style="opacity:0.039" fill="#97a2a8" d="M 172.5,115.5 C 174.288,114.378 176.288,114.211 178.5,115C 176.527,115.495 174.527,115.662 172.5,115.5 Z"/></g>
<g><path style="opacity:0.045" fill="#5d737c" d="M 146.5,115.5 C 147.756,115.461 148.756,115.961 149.5,117C 148.002,117.585 147.002,117.085 146.5,115.5 Z"/></g>
<g><path style="opacity:0.014" fill="#6b7e87" d="M 164.5,117.5 C 166.119,115.762 168.119,115.262 170.5,116C 168.564,116.813 166.564,117.313 164.5,117.5 Z"/></g>
<g><path style="opacity:0.082" fill="#47646e" d="M 184.5,116.5 C 183.127,116.657 181.793,116.49 180.5,116C 182.066,115.235 183.399,115.402 184.5,116.5 Z"/></g>
<g><path style="opacity:0.012" fill="#5c7376" d="M 184.5,116.5 C 185.492,116.328 186.158,116.662 186.5,117.5C 185.508,117.672 184.842,117.338 184.5,116.5 Z"/></g>
<g><path style="opacity:0.033" fill="#7d95a1" d="M 164.5,117.5 C 163.998,119.085 162.998,119.585 161.5,119C 162.244,117.961 163.244,117.461 164.5,117.5 Z"/></g>
<g><path style="opacity:0.047" fill="#516974" d="M 130.5,115.5 C 126.12,118.554 122.786,122.554 120.5,127.5C 121.067,121.567 124.401,117.567 130.5,115.5 Z"/></g>
<g><path style="opacity:0.994" fill="#fdfdfd" d="M 190.5,163.5 C 189.249,164.472 189.582,165.139 191.5,165.5C 192.442,165.392 193.275,165.059 194,164.5C 194.207,152.455 194.707,140.455 195.5,128.5C 198.581,124.91 202.581,123.243 207.5,123.5C 216.679,124.177 221.846,129.177 223,138.5C 223.5,147.16 223.666,155.827 223.5,164.5C 224.822,164.67 225.989,164.337 227,163.5C 227.333,155.167 227.667,146.833 228,138.5C 231.277,132.891 236.11,131.058 242.5,133C 247,134.833 250.167,138 252,142.5C 255.856,172.13 256.356,201.796 253.5,231.5C 252.25,231.577 251.417,232.244 251,233.5C 250.124,237.292 248.958,240.959 247.5,244.5C 241.921,264.495 228.921,276.328 208.5,280C 192.161,281.929 175.828,281.929 159.5,280C 140.546,274.208 126.213,262.708 116.5,245.5C 112.204,234.921 107.537,224.588 102.5,214.5C 96.9577,199.765 95.1244,184.432 97,168.5C 101.024,159.381 107.19,157.547 115.5,163C 117.977,169.57 118.977,176.403 118.5,183.5C 117.844,184.622 117.511,185.955 117.5,187.5C 117.585,189.333 118.252,190.666 119.5,191.5C 119.238,192.978 119.571,194.311 120.5,195.5C 121.333,174.841 121.833,154.175 122,133.5C 125.26,119.12 133.76,114.62 147.5,120C 149.123,122.08 150.623,124.246 152,126.5C 153.422,139.439 153.922,152.439 153.5,165.5C 154.833,165.5 156.167,165.5 157.5,165.5C 157.078,152.439 157.578,139.439 159,126.5C 166.467,118.672 175.3,116.839 185.5,121C 187.378,122.543 188.878,124.376 190,126.5C 190.5,138.829 190.667,151.162 190.5,163.5 Z"/></g>
<g><path style="opacity:0.086" fill="#5d727d" d="M 213.5,120.5 C 209.818,120.665 206.152,120.499 202.5,120C 206.358,119.19 210.024,119.357 213.5,120.5 Z"/></g>
<g><path style="opacity:0.008" fill="#234050" d="M 159.5,120.5 C 160.833,121.167 160.833,121.167 159.5,120.5 Z"/></g>
<g><path style="opacity:0.071" fill="#657786" d="M 198.5,121.5 C 199.251,120.427 200.251,120.26 201.5,121C 200.552,121.483 199.552,121.649 198.5,121.5 Z"/></g>
<g><path style="opacity:0.022" fill="#6a818e" d="M 213.5,120.5 C 215.38,120.229 216.713,120.896 217.5,122.5C 215.847,122.34 214.514,121.674 213.5,120.5 Z"/></g>
<g><path style="opacity:0.034" fill="#637782" d="M 159.5,121.5 C 158.998,123.085 157.998,123.585 156.5,123C 157.244,121.961 158.244,121.461 159.5,121.5 Z"/></g>
<g><path style="opacity:0.053" fill="#5b7884" d="M 196.5,122.5 C 196.842,121.662 197.508,121.328 198.5,121.5C 198.158,122.338 197.492,122.672 196.5,122.5 Z"/></g>
<g><path style="opacity:0.029" fill="#59707e" d="M 149.5,119.5 C 150.386,118.224 151.386,118.224 152.5,119.5C 153.602,121.889 155.269,123.723 157.5,125C 156.953,125.925 156.287,126.758 155.5,127.5C 153.966,124.407 151.966,121.74 149.5,119.5 Z"/></g>
<g><path style="opacity:0.025" fill="#5f7786" d="M 186.5,117.5 C 189.407,118.734 191.741,120.734 193.5,123.5C 194.417,122.873 195.417,122.539 196.5,122.5C 195.809,124.022 194.642,125.022 193,125.5C 191.024,122.689 188.857,120.022 186.5,117.5 Z"/></g>
<g><path style="opacity:0.022" fill="#8ea1ac" d="M 217.5,122.5 C 219.196,122.685 220.529,123.519 221.5,125C 219.588,125.279 218.254,124.446 217.5,122.5 Z"/></g>
<g><path style="opacity:0.035" fill="#4f6875" d="M 220.5,127.5 C 221.497,126.287 222.497,126.454 223.5,128C 222.423,128.47 221.423,128.303 220.5,127.5 Z"/></g>
<g><path style="opacity:0.008" fill="#638185" d="M 118.5,128.5 C 120.465,128.948 120.798,129.948 119.5,131.5C 118.614,130.675 118.281,129.675 118.5,128.5 Z"/></g>
<g><path style="opacity:0.043" fill="#71868e" d="M 222.5,130.5 C 222.897,129.475 223.563,129.308 224.5,130C 223.906,130.464 223.239,130.631 222.5,130.5 Z"/></g>
<g><path style="opacity:0.012" fill="#7a909d" d="M 243.5,129.5 C 245.38,129.229 246.713,129.896 247.5,131.5C 245.847,131.34 244.514,130.674 243.5,129.5 Z"/></g>
<g><path style="opacity:0.035" fill="#687e89" d="M 243.5,129.5 C 237.246,128.682 231.579,130.016 226.5,133.5C 227.894,131.292 229.894,129.792 232.5,129C 236.358,128.19 240.024,128.357 243.5,129.5 Z"/></g>
<g><path style="opacity:0.012" fill="#758997" d="M 247.5,131.5 C 248.492,131.328 249.158,131.662 249.5,132.5C 248.508,132.672 247.842,132.338 247.5,131.5 Z"/></g>
<g><path style="opacity:0.035" fill="#5f798b" d="M 226.5,133.5 C 225.257,134.737 224.257,134.404 223.5,132.5C 223.833,132.167 224.167,131.833 224.5,131.5C 225.182,132.243 225.849,132.909 226.5,133.5 Z"/></g>
<g><path style="opacity:0.022" fill="#788d9a" d="M 249.5,132.5 C 252.163,134.089 254.163,136.422 255.5,139.5C 255.167,139.833 254.833,140.167 254.5,140.5C 252.807,137.816 251.14,135.149 249.5,132.5 Z"/></g>
<g><path style="opacity:0.004" fill="#5b737f" d="M 114.5,158.5 C 115.496,158.414 116.329,158.748 117,159.5C 117.168,150.814 117.668,142.148 118.5,133.5C 119.498,142.475 119.832,151.475 119.5,160.5C 117.302,160.88 115.635,160.213 114.5,158.5 Z"/></g>
<g><path style="opacity:0.788" fill="#b9c2c7" d="M 195.5,128.5 C 194.707,140.455 194.207,152.455 194,164.5C 193.275,165.059 192.442,165.392 191.5,165.5C 189.582,165.139 189.249,164.472 190.5,163.5C 190.56,164.043 190.893,164.376 191.5,164.5C 192.332,153.849 192.832,143.182 193,132.5C 193.2,130.68 194.034,129.347 195.5,128.5 Z"/></g>
<g><path style="opacity:0.012" fill="#45606a" d="M 254.5,141.5 C 255.586,141.62 256.253,142.287 256.5,143.5C 256.167,144.167 255.833,144.833 255.5,145.5C 254.571,144.311 254.238,142.978 254.5,141.5 Z"/></g>
<g><path style="opacity:0.051" fill="#5d7685" d="M 255.5,148.5 C 256.748,149.334 257.415,150.667 257.5,152.5C 257.167,153.833 256.833,155.167 256.5,156.5C 255.52,153.914 255.187,151.247 255.5,148.5 Z"/></g>
<g><path style="opacity:0.047" fill="#94a9b6" d="M 104.5,156.5 C 106.167,155.167 107.833,155.167 109.5,156.5C 107.833,156.5 106.167,156.5 104.5,156.5 Z"/></g>
<g><path style="opacity:0.055" fill="#455d68" d="M 109.5,156.5 C 110.791,156.263 111.791,156.596 112.5,157.5C 111.209,157.737 110.209,157.404 109.5,156.5 Z"/></g>
<g><path style="opacity:0.075" fill="#52697c" d="M 112.5,157.5 C 113.492,157.328 114.158,157.662 114.5,158.5C 113.508,158.672 112.842,158.338 112.5,157.5 Z"/></g>
<g><path style="opacity:0.041" fill="#697f88" d="M 104.5,156.5 C 101.873,157.831 99.54,159.664 97.5,162C 96.8333,162.667 96.1667,162.667 95.5,162C 97.6409,158.68 100.641,156.846 104.5,156.5 Z"/></g>
<g><path style="opacity:0.039" fill="#4e697b" d="M 93.5,164.5 C 93.8966,163.475 94.5632,163.308 95.5,164C 94.9056,164.464 94.2389,164.631 93.5,164.5 Z"/></g>
<g><path style="opacity:0.051" fill="#627883" d="M 256.5,159.5 C 257.765,160.514 258.431,162.014 258.5,164C 258.167,165.5 257.833,167 257.5,168.5C 256.516,165.572 256.183,162.572 256.5,159.5 Z"/></g>
<g><path style="opacity:0.024" fill="#465b6b" d="M 92.5,165.5 C 94.337,165.639 94.6704,166.306 93.5,167.5C 92.7025,167.043 92.3691,166.376 92.5,165.5 Z"/></g>
<g><path style="opacity:0.024" fill="#46646f" d="M 92.5,168.5 C 93.5983,169.601 93.765,170.934 93,172.5C 92.51,171.207 92.3433,169.873 92.5,168.5 Z"/></g>
<g><path style="opacity:0.055" fill="#5f7c89" d="M 257.5,173.5 C 258.643,176.976 258.81,180.642 258,184.5C 257.501,180.848 257.335,177.182 257.5,173.5 Z"/></g>
<g><path style="opacity:0.455" fill="#8899a5" d="M 118.5,183.5 C 119.388,186.054 119.721,188.721 119.5,191.5C 118.252,190.666 117.585,189.333 117.5,187.5C 117.511,185.955 117.844,184.622 118.5,183.5 Z"/></g>
<g><path style="opacity:0.078" fill="#56727c" d="M 92.5,185.5 C 93.6225,187.288 93.7891,189.288 93,191.5C 92.5045,189.527 92.3379,187.527 92.5,185.5 Z"/></g>
<g><path style="opacity:0.004" fill="#234d5f" d="M 257.5,185.5 C 258.613,186.946 258.78,188.613 258,190.5C 257.506,188.866 257.34,187.199 257.5,185.5 Z"/></g>
<g><path style="opacity:0.037" fill="#567783" d="M 92.5,194.5 C 93.6491,194.791 94.3158,195.624 94.5,197C 94.3333,197.833 94.1667,198.667 94,199.5C 92.7308,198.095 92.2308,196.429 92.5,194.5 Z"/></g>
<g><path style="opacity:0.039" fill="#6c7f8a" d="M 94.5,200.5 C 95.5983,201.601 95.765,202.934 95,204.5C 93.2317,203.318 93.0651,201.985 94.5,200.5 Z"/></g>
<g><path style="opacity:0.037" fill="#6d8693" d="M 95.5,205.5 C 97.8519,206.543 98.0185,207.876 96,209.5C 95.51,208.207 95.3433,206.873 95.5,205.5 Z"/></g>
<g><path style="opacity:0.008" fill="#627f8b" d="M 96.5,210.5 C 98.4646,210.948 98.7979,211.948 97.5,213.5C 96.6143,212.675 96.281,211.675 96.5,210.5 Z"/></g>
<g><path style="opacity:0.016" fill="#566d76" d="M 97.5,214.5 C 99.5128,215.475 100.846,217.142 101.5,219.5C 101.167,219.833 100.833,220.167 100.5,220.5C 98.9617,218.757 97.9617,216.757 97.5,214.5 Z"/></g>
<g><path style="opacity:0.039" fill="#627c8c" d="M 257.5,209.5 C 258.645,213.311 258.812,217.311 258,221.5C 257.501,217.514 257.334,213.514 257.5,209.5 Z"/></g>
<g><path style="opacity:0.045" fill="#7a8c95" d="M 100.5,222.5 C 100.897,221.475 101.563,221.308 102.5,222C 101.906,222.464 101.239,222.631 100.5,222.5 Z"/></g>
<g><path style="opacity:0.051" fill="#61747a" d="M 101.5,224.5 C 101.897,223.475 102.563,223.308 103.5,224C 102.906,224.464 102.239,224.631 101.5,224.5 Z"/></g>
<g><path style="opacity:0.027" fill="#72888d" d="M 102.5,225.5 C 104.337,225.639 104.67,226.306 103.5,227.5C 102.702,227.043 102.369,226.376 102.5,225.5 Z"/></g>
<g><path style="opacity:0.345" fill="#adb5bd" d="M 102.5,214.5 C 107.537,224.588 112.204,234.921 116.5,245.5C 114.19,242.898 112.357,239.898 111,236.5C 107.869,229.246 105.036,221.913 102.5,214.5 Z"/></g>
<g><path style="opacity:0.018" fill="#707b8c" d="M 256.5,223.5 C 257.649,223.791 258.316,224.624 258.5,226C 258.167,226.833 257.833,227.667 257.5,228.5C 256.548,226.955 256.215,225.288 256.5,223.5 Z"/></g>
<g><path style="opacity:0.043" fill="#66848f" d="M 103.5,229.5 C 103.897,228.475 104.563,228.308 105.5,229C 104.906,229.464 104.239,229.631 103.5,229.5 Z"/></g>
<g><path style="opacity:0.014" fill="#58717e" d="M 104.5,230.5 C 106.832,231.162 107.499,232.495 106.5,234.5C 105.295,233.423 104.628,232.09 104.5,230.5 Z"/></g>
<g><path style="opacity:0.051" fill="#647682" d="M 255.5,230.5 C 257.465,230.948 257.798,231.948 256.5,233.5C 255.614,232.675 255.281,231.675 255.5,230.5 Z"/></g>
<g><path style="opacity:0.522" fill="#9ea7af" d="M 253.5,231.5 C 252.623,236.517 250.623,240.851 247.5,244.5C 248.958,240.959 250.124,237.292 251,233.5C 251.417,232.244 252.25,231.577 253.5,231.5 Z"/></g>
<g><path style="opacity:0.049" fill="#637b87" d="M 254.5,234.5 C 256.465,234.948 256.798,235.948 255.5,237.5C 254.614,236.675 254.281,235.675 254.5,234.5 Z"/></g>
<g><path style="opacity:0.035" fill="#738392" d="M 106.5,235.5 C 108.337,235.639 108.67,236.306 107.5,237.5C 106.702,237.043 106.369,236.376 106.5,235.5 Z"/></g>
<g><path style="opacity:0.053" fill="#628598" d="M 107.5,239.5 C 107.897,238.475 108.563,238.308 109.5,239C 108.906,239.464 108.239,239.631 107.5,239.5 Z"/></g>
<g><path style="opacity:0.027" fill="#7990a0" d="M 253.5,238.5 C 255.337,238.639 255.67,239.306 254.5,240.5C 253.702,240.043 253.369,239.376 253.5,238.5 Z"/></g>
<g><path style="opacity:0.051" fill="#70858f" d="M 108.5,241.5 C 108.897,240.475 109.563,240.308 110.5,241C 109.906,241.464 109.239,241.631 108.5,241.5 Z"/></g>
<g><path style="opacity:0.053" fill="#66818d" d="M 109.5,243.5 C 109.897,242.475 110.563,242.308 111.5,243C 110.906,243.464 110.239,243.631 109.5,243.5 Z"/></g>
<g><path style="opacity:0.012" fill="#7b8d96" d="M 252.5,243.5 C 252.639,241.663 253.306,241.33 254.5,242.5C 254.043,243.298 253.376,243.631 252.5,243.5 Z"/></g>
<g><path style="opacity:0.045" fill="#436171" d="M 252.5,243.5 C 253.463,244.363 253.463,245.03 252.5,245.5C 251.227,244.743 251.227,244.077 252.5,243.5 Z"/></g>
<g><path style="opacity:0.022" fill="#768b99" d="M 110.5,245.5 C 110.897,244.475 111.563,244.308 112.5,245C 114.547,247.054 114.547,248.054 112.5,248C 111.934,247.005 111.267,246.172 110.5,245.5 Z"/></g>
<g><path style="opacity:0.039" fill="#637483" d="M 250.5,246.5 C 252.337,246.639 252.67,247.306 251.5,248.5C 250.702,248.043 250.369,247.376 250.5,246.5 Z"/></g>
<g><path style="opacity:0.004" fill="#84969e" d="M 248.5,253.5 C 248.522,251.2 249.522,250.033 251.5,250C 250.837,251.518 249.837,252.685 248.5,253.5 Z"/></g>
<g><path style="opacity:0.018" fill="#758a91" d="M 118.5,255.5 C 116.429,254.109 114.762,252.276 113.5,250C 114.167,249.333 114.833,249.333 115.5,250C 116.5,251.667 117.833,253 119.5,254C 118.944,254.383 118.611,254.883 118.5,255.5 Z"/></g>
<g><path style="opacity:0.033" fill="#506b7e" d="M 118.5,255.5 C 120.196,255.685 121.529,256.519 122.5,258C 120.588,258.279 119.254,257.446 118.5,255.5 Z"/></g>
<g><path style="opacity:0.035" fill="#506775" d="M 248.5,253.5 C 247.955,255.593 247.122,257.593 246,259.5C 245.282,260.451 244.449,260.617 243.5,260C 244.603,257.243 246.269,255.076 248.5,253.5 Z"/></g>
<g><path style="opacity:0.043" fill="#6a808a" d="M 241.5,261.5 C 242.552,261.351 243.552,261.517 244.5,262C 243.289,264.9 241.289,266.566 238.5,267C 240.607,265.736 241.607,263.903 241.5,261.5 Z"/></g>
<g><path style="opacity:0.047" fill="#667d87" d="M 121.5,260.5 C 121.897,259.475 122.563,259.308 123.5,260C 126.5,263 129.5,266 132.5,269C 131.833,269.667 131.167,269.667 130.5,269C 127.631,265.962 124.631,263.129 121.5,260.5 Z"/></g>
<g><path style="opacity:0.022" fill="#8d9ea9" d="M 233.5,273.5 C 234.475,271.807 235.808,270.307 237.5,269C 238.167,268.333 238.833,268.333 239.5,269C 237.886,271.127 235.886,272.627 233.5,273.5 Z"/></g>
<g><path style="opacity:0.041" fill="#5f7582" d="M 139.5,274.5 C 136.86,274.046 134.527,272.879 132.5,271C 135.35,270.991 137.683,272.158 139.5,274.5 Z"/></g>
<g><path style="opacity:0.039" fill="#5b737f" d="M 233.5,273.5 C 232.196,275.982 230.196,277.149 227.5,277C 229.391,275.558 231.391,274.391 233.5,273.5 Z"/></g>
<g><path style="opacity:0.004" fill="#6b8394" d="M 139.5,274.5 C 141.674,274.75 143.341,275.75 144.5,277.5C 142.067,277.727 140.401,276.727 139.5,274.5 Z"/></g>
<g><path style="opacity:0.027" fill="#7b8d97" d="M 144.5,277.5 C 145.492,277.328 146.158,277.662 146.5,278.5C 145.508,278.672 144.842,278.338 144.5,277.5 Z"/></g>
<g><path style="opacity:0.024" fill="#81949e" d="M 146.5,278.5 C 148.153,278.66 149.486,279.326 150.5,280.5C 148.62,280.771 147.287,280.104 146.5,278.5 Z"/></g>
<g><path style="opacity:0.078" fill="#657c88" d="M 222.5,279.5 C 223.527,278.152 224.86,277.652 226.5,278C 225.437,279.188 224.103,279.688 222.5,279.5 Z"/></g>
<g><path style="opacity:0.075" fill="#697a86" d="M 220.5,280.5 C 220.842,279.662 221.508,279.328 222.5,279.5C 222.158,280.338 221.492,280.672 220.5,280.5 Z"/></g>
<g><path style="opacity:0.078" fill="#627c8c" d="M 150.5,280.5 C 151.791,280.263 152.791,280.596 153.5,281.5C 152.209,281.737 151.209,281.404 150.5,280.5 Z"/></g>
<g><path style="opacity:0.075" fill="#6c8598" d="M 217.5,281.5 C 218.209,280.596 219.209,280.263 220.5,280.5C 219.791,281.404 218.791,281.737 217.5,281.5 Z"/></g>
<g><path style="opacity:0.086" fill="#647681" d="M 153.5,281.5 C 154.791,281.263 155.791,281.596 156.5,282.5C 155.209,282.737 154.209,282.404 153.5,281.5 Z"/></g>
<g><path style="opacity:0.027" fill="#6d8b92" d="M 213.5,282.5 C 214.568,281.566 215.901,281.232 217.5,281.5C 216.432,282.434 215.099,282.768 213.5,282.5 Z"/></g>
<g><path style="opacity:0.055" fill="#7f8f9b" d="M 156.5,282.5 C 157.552,282.351 158.552,282.517 159.5,283C 158.251,283.74 157.251,283.573 156.5,282.5 Z"/></g>
<g><path style="opacity:0.02" fill="#779195" d="M 213.5,282.5 C 212.399,283.598 211.066,283.765 209.5,283C 210.793,282.51 212.127,282.343 213.5,282.5 Z"/></g>
<g><path style="opacity:0.012" fill="#445c68" d="M 161.5,284.5 C 162.601,283.402 163.934,283.235 165.5,284C 164.207,284.49 162.873,284.657 161.5,284.5 Z"/></g>
<g><path style="opacity:0.086" fill="#647a87" d="M 201.5,284.5 C 203.628,283.371 205.961,283.204 208.5,284C 206.19,284.497 203.857,284.663 201.5,284.5 Z"/></g>
<g><path style="opacity:0.086" fill="#677e8b" d="M 167.5,285.5 C 177.325,284.342 187.325,284.175 197.5,285C 187.506,285.5 177.506,285.666 167.5,285.5 Z"/></g>
</svg>
