<?xml version="1.0" encoding="UTF-8"?>
<!DOCTYPE svg PUBLIC "-//W3C//DTD SVG 1.1//EN" "http://www.w3.org/Graphics/SVG/1.1/DTD/svg11.dtd">
<svg xmlns="http://www.w3.org/2000/svg" viewBox="0 0 333.000000 333.000000" version="1.1" width="32px" height="32px" style="shape-rendering:geometricPrecision; text-rendering:geometricPrecision; image-rendering:optimizeQuality; fill-rule:evenodd; clip-rule:evenodd" xmlns:xlink="http://www.w3.org/1999/xlink">
<g><path style="opacity:0.078" fill="#7d8790" d="M 172.5,43.5 C 174.966,42.3659 177.633,42.1993 180.5,43C 177.854,43.4974 175.187,43.6641 172.5,43.5 Z"/></g>
<g><path style="opacity:0.051" fill="#768f9e" d="M 186.5,44.5 C 185.448,44.6495 184.448,44.4828 183.5,44C 184.749,43.2599 185.749,43.4265 186.5,44.5 Z"/></g>
<g><path style="opacity:0.02" fill="#637b89" d="M 167.5,43.5 C 168.873,43.3433 170.207,43.51 171.5,44C 165.509,45.8355 160.842,49.3355 157.5,54.5C 156.592,53.21 156.759,51.8767 158,50.5C 161.068,47.9174 164.235,45.5841 167.5,43.5 Z"/></g>
<g><path style="opacity:0.014" fill="#7a909e" d="M 186.5,44.5 C 188.937,44.886 190.937,46.0527 192.5,48C 191.833,48.6667 191.167,48.6667 190.5,48C 188.907,47.0513 187.574,45.8846 186.5,44.5 Z"/></g>
<g><path style="opacity:0.788" fill="#9aa8b1" d="M 175.5,46.5 C 173.401,47.6118 171.067,48.2785 168.5,48.5C 170.438,46.8372 172.772,46.1706 175.5,46.5 Z"/></g>
<g><path style="opacity:0.99" fill="#fdfdfd" d="M 175.5,46.5 C 178.545,46.5079 181.545,46.8413 184.5,47.5C 184.973,48.9063 185.973,49.573 187.5,49.5C 187.427,51.0269 188.094,52.0269 189.5,52.5C 189.99,55.6553 190.656,58.6553 191.5,61.5C 191.5,91.1667 191.5,120.833 191.5,150.5C 190.549,151.919 190.216,153.585 190.5,155.5C 192.5,155.5 194.5,155.5 196.5,155.5C 196.768,153.901 196.434,152.568 195.5,151.5C 196.978,123.646 198.978,95.9789 201.5,68.5C 203.5,68.5 204.5,67.5 204.5,65.5C 212.047,61.6005 219.713,61.6005 227.5,65.5C 229.973,69.7512 230.973,74.4178 230.5,79.5C 228.501,104.816 226.834,130.149 225.5,155.5C 226.791,155.737 227.791,155.404 228.5,154.5C 228.81,153.262 229.31,153.262 230,154.5C 230.333,153.5 230.667,152.5 231,151.5C 235.417,130.831 240.583,110.498 246.5,90.5C 247.758,91.0164 248.758,90.3497 249.5,88.5C 258.494,84.7204 264.994,87.387 269,96.5C 267.546,111.739 265.046,127.072 261.5,142.5C 260.414,142.62 259.747,143.287 259.5,144.5C 258.833,147.5 258.167,150.5 257.5,153.5C 257.747,154.713 258.414,155.38 259.5,155.5C 257.341,161.762 256.341,168.095 256.5,174.5C 255.167,185.833 255.167,197.167 256.5,208.5C 256.5,211.833 256.5,215.167 256.5,218.5C 255.275,219.152 254.608,220.319 254.5,222C 254.514,223.385 254.848,224.551 255.5,225.5C 255.5,227.167 255.5,228.833 255.5,230.5C 253.448,231.053 253.115,232.053 254.5,233.5C 254.5,234.5 254.5,235.5 254.5,236.5C 251.834,237.509 251.167,239.176 252.5,241.5C 252.5,241.833 252.5,242.167 252.5,242.5C 251.25,242.577 250.417,243.244 250,244.5C 249.598,245.872 249.098,247.205 248.5,248.5C 248.624,249.107 248.957,249.44 249.5,249.5C 246.43,255.304 243.097,260.97 239.5,266.5C 235.564,268.766 232.231,271.766 229.5,275.5C 223.157,279.451 216.157,281.951 208.5,283C 195.529,284.436 182.529,284.769 169.5,284C 156.236,282.759 144.903,277.592 135.5,268.5C 133.451,265.45 130.784,263.117 127.5,261.5C 123.422,256.762 119.756,251.762 116.5,246.5C 115.674,243.515 114.341,240.849 112.5,238.5C 112.741,235.966 111.741,234.3 109.5,233.5C 109.5,233.167 109.5,232.833 109.5,232.5C 108.753,229.638 107.086,227.638 104.5,226.5C 103.147,225.474 102.147,224.141 101.5,222.5C 100.833,221.167 99.8333,220.167 98.5,219.5C 97.5,219.167 96.8333,218.5 96.5,217.5C 93.7689,213.766 90.4356,210.766 86.5,208.5C 81.5137,204.845 76.847,200.845 72.5,196.5C 71.9202,194.251 70.5869,192.585 68.5,191.5C 67.6618,191.158 67.3284,190.492 67.5,189.5C 66.588,185.869 66.4213,182.203 67,178.5C 68.7073,176.963 70.2073,175.296 71.5,173.5C 72.347,172.034 73.6803,171.2 75.5,171C 78.8333,170.333 82.1667,170.333 85.5,171C 88.9858,172.996 92.3191,175.163 95.5,177.5C 96.865,179.86 98.865,181.527 101.5,182.5C 103.23,183.026 104.564,184.026 105.5,185.5C 105.833,186.5 106.5,187.167 107.5,187.5C 111.12,189.453 114.12,192.119 116.5,195.5C 118.177,197.54 119.844,199.54 121.5,201.5C 121.461,202.756 121.961,203.756 123,204.5C 123.823,196.323 123.656,188.323 122.5,180.5C 122.024,176.007 121.358,171.673 120.5,167.5C 120.5,166.167 120.5,164.833 120.5,163.5C 115.434,136.586 109.767,109.92 103.5,83.5C 102.167,83.1667 102.167,82.8333 103.5,82.5C 105.352,79.4493 106.686,76.116 107.5,72.5C 109.5,72.5 110.5,71.5 110.5,69.5C 115.636,67.2661 120.97,66.9328 126.5,68.5C 126.833,70.8333 128.167,72.1667 130.5,72.5C 131.906,72.9731 132.573,73.9731 132.5,75.5C 132.427,77.0269 133.094,78.0269 134.5,78.5C 136.321,83.7547 138.154,89.0881 140,94.5C 144.51,114.874 149.177,135.207 154,155.5C 154.113,153.026 155.113,151.026 157,149.5C 155.826,151.86 156.66,153.193 159.5,153.5C 160.174,120.931 160.84,88.2644 161.5,55.5C 162.167,51.5 164.5,49.1667 168.5,48.5C 171.067,48.2785 173.401,47.6118 175.5,46.5 Z"/></g>
<g><path style="opacity:0.004" fill="#637780" d="M 184.5,47.5 C 186.027,47.427 187.027,48.0937 187.5,49.5C 185.973,49.573 184.973,48.9063 184.5,47.5 Z"/></g>
<g><path style="opacity:0.361" fill="#758d9a" d="M 187.5,49.5 C 188.906,49.9731 189.573,50.9731 189.5,52.5C 188.094,52.0269 187.427,51.0269 187.5,49.5 Z"/></g>
<g><path style="opacity:0.051" fill="#607887" d="M 191.5,50.5 C 192.189,49.2264 193.023,49.2264 194,50.5C 195.401,52.1459 195.568,53.8125 194.5,55.5C 193.675,53.6404 192.675,51.9738 191.5,50.5 Z"/></g>
<g><path style="opacity:0.041" fill="#54707b" d="M 155.5,55.5 C 157.337,55.6395 157.67,56.3061 156.5,57.5C 155.702,57.0431 155.369,56.3764 155.5,55.5 Z"/></g>
<g><path style="opacity:0.024" fill="#8f98a4" d="M 194.5,59.5 C 194.897,58.475 195.563,58.3083 196.5,59C 195.906,59.4643 195.239,59.631 194.5,59.5 Z"/></g>
<g><path style="opacity:0.004" fill="#94a3a5" d="M 201.5,58.5 C 202.833,59.1667 202.833,59.1667 201.5,58.5 Z"/></g>
<g><path style="opacity:0.027" fill="#8d97a3" d="M 136.5,60.5 C 138.288,59.3775 140.288,59.2109 142.5,60C 140.527,60.4955 138.527,60.6621 136.5,60.5 Z"/></g>
<g><path style="opacity:0.339" fill="#748a95" d="M 189.5,52.5 C 191.05,54.3002 192.05,56.4668 192.5,59C 191.748,59.6708 191.414,60.5041 191.5,61.5C 190.656,58.6553 189.99,55.6553 189.5,52.5 Z"/></g>
<g><path style="opacity:0.004" fill="#5d7181" d="M 199.5,59.5 C 200.833,60.1667 200.833,60.1667 199.5,59.5 Z"/></g>
<g><path style="opacity:0.039" fill="#596d71" d="M 209.5,58.5 C 210.978,58.238 212.311,58.5713 213.5,59.5C 212.833,59.8333 212.167,60.1667 211.5,60.5C 210.287,60.2528 209.62,59.5862 209.5,58.5 Z"/></g>
<g><path style="opacity:0.078" fill="#50697a" d="M 132.5,61.5 C 133.251,60.4265 134.251,60.2599 135.5,61C 134.552,61.4828 133.552,61.6495 132.5,61.5 Z"/></g>
<g><path style="opacity:0.008" fill="#5c7082" d="M 206.5,59.5 C 207.376,59.3691 208.043,59.7025 208.5,60.5C 207.277,61.6139 205.944,61.7805 204.5,61C 205.416,60.7216 206.082,60.2216 206.5,59.5 Z"/></g>
<g><path style="opacity:0.008" fill="#60767e" d="M 132.5,61.5 C 131.749,62.5735 130.749,62.7401 129.5,62C 130.448,61.5172 131.448,61.3505 132.5,61.5 Z"/></g>
<g><path style="opacity:0.047" fill="#65798d" d="M 196.5,60.5 C 198.379,60.3932 198.712,60.8932 197.5,62C 194.125,62.6316 193.791,62.1316 196.5,60.5 Z"/></g>
<g><path style="opacity:0.022" fill="#86919e" d="M 116.5,63.5 C 117.525,63.8966 117.692,64.5632 117,65.5C 116.536,64.9056 116.369,64.2389 116.5,63.5 Z"/></g>
<g><path style="opacity:0.043" fill="#6b7e89" d="M 220.5,60.5 C 227.345,59.5986 232.345,62.432 235.5,69C 234.833,69.6667 234.167,69.6667 233.5,69C 230.518,64.1712 226.185,61.3379 220.5,60.5 Z"/></g>
<g><path style="opacity:0.053" fill="#637c8b" d="M 120.5,63.5 C 125.784,63.5881 130.117,65.5881 133.5,69.5C 133,69.8333 132.5,70.1667 132,70.5C 130.101,67.6008 127.435,65.9342 124,65.5C 122.215,66.3538 121.049,65.6871 120.5,63.5 Z"/></g>
<g><path style="opacity:0.533" fill="#7c8b93" d="M 204.5,65.5 C 204.5,67.5 203.5,68.5 201.5,68.5C 201.5,66.5 202.5,65.5 204.5,65.5 Z"/></g>
<g><path style="opacity:0.027" fill="#4f656e" d="M 104.5,70.5 C 104.834,67.7252 106.167,67.0585 108.5,68.5C 107.423,69.7051 106.09,70.3718 104.5,70.5 Z"/></g>
<g><path style="opacity:0.255" fill="#768996" d="M 126.5,68.5 C 128.167,69.5 129.5,70.8333 130.5,72.5C 128.167,72.1667 126.833,70.8333 126.5,68.5 Z"/></g>
<g><path style="opacity:0.02" fill="#6a7c88" d="M 194.5,66.5 C 197.041,67.6228 197.041,68.9561 194.5,70.5C 194.094,69.4425 194.094,68.1092 194.5,66.5 Z"/></g>
<g><path style="opacity:0.033" fill="#8698a4" d="M 104.5,70.5 C 104.824,73.6802 103.49,74.8469 100.5,74C 101.103,71.9286 102.436,70.7619 104.5,70.5 Z"/></g>
<g><path style="opacity:0.502" fill="#789099" d="M 110.5,69.5 C 110.5,71.5 109.5,72.5 107.5,72.5C 108.167,71.1667 109.167,70.1667 110.5,69.5 Z"/></g>
<g><path style="opacity:0.035" fill="#5d7883" d="M 233.5,70.5 C 234.675,70.281 235.675,70.6143 236.5,71.5C 234.948,72.7979 233.948,72.4646 233.5,70.5 Z"/></g>
<g><path style="opacity:0.004" fill="#254457" d="M 193.5,75.5 C 193.897,74.475 194.563,74.3083 195.5,75C 194.906,75.4643 194.239,75.631 193.5,75.5 Z"/></g>
<g><path style="opacity:0.675" fill="#9eacb4" d="M 107.5,72.5 C 106.686,76.116 105.352,79.4493 103.5,82.5C 103.206,78.433 104.54,75.0997 107.5,72.5 Z"/></g>
<g><path style="opacity:0.108" fill="#748b95" d="M 132.5,75.5 C 133.906,75.9731 134.573,76.9731 134.5,78.5C 133.094,78.0269 132.427,77.0269 132.5,75.5 Z"/></g>
<g><path style="opacity:0.01" fill="#93a2ac" d="M 238.5,77.5 C 238.897,76.475 239.563,76.3083 240.5,77C 239.906,77.4643 239.239,77.631 238.5,77.5 Z"/></g>
<g><path style="opacity:0.047" fill="#6f8592" d="M 246.5,78.5 C 245.448,78.6495 244.448,78.4828 243.5,78C 244.749,77.2599 245.749,77.4265 246.5,78.5 Z"/></g>
<g><path style="opacity:0.051" fill="#6e8095" d="M 99.5,76.5 C 102.598,76.4125 102.932,76.9125 100.5,78C 101.711,78.8928 101.711,79.7261 100.5,80.5C 99.5713,79.3112 99.238,77.9778 99.5,76.5 Z"/></g>
<g><path style="opacity:0.004" fill="#768c99" d="M 246.5,78.5 C 247.239,78.369 247.906,78.5357 248.5,79C 247.563,79.6917 246.897,79.525 246.5,78.5 Z"/></g>
<g><path style="opacity:0.027" fill="#788a99" d="M 234.5,74.5 C 237.773,74.4706 238.44,75.8039 236.5,78.5C 239.205,80.5344 238.872,82.201 235.5,83.5C 234.516,80.5719 234.183,77.5719 234.5,74.5 Z"/></g>
<g><path style="opacity:0.031" fill="#5d7481" d="M 239.5,79.5 C 241.337,79.6395 241.67,80.3061 240.5,81.5C 239.702,81.0431 239.369,80.3764 239.5,79.5 Z"/></g>
<g><path style="opacity:0.063" fill="#516872" d="M 98.5,81.5 C 99.5,81.5 100.5,81.5 101.5,81.5C 100.851,83.4771 100.851,85.3105 101.5,87C 101.37,88.0588 100.87,88.8921 100,89.5C 98.8566,86.873 98.3566,84.2063 98.5,81.5 Z"/></g>
<g><path style="opacity:0.008" fill="#3a536a" d="M 251.5,82.5 C 253.337,82.6395 253.67,83.3061 252.5,84.5C 251.702,84.0431 251.369,83.3764 251.5,82.5 Z"/></g>
<g><path style="opacity:0.012" fill="#324e5d" d="M 254.5,82.5 C 256.337,82.6395 256.67,83.3061 255.5,84.5C 254.702,84.0431 254.369,83.3764 254.5,82.5 Z"/></g>
<g><path style="opacity:0.239" fill="#556d79" d="M 249.5,88.5 C 248.758,90.3497 247.758,91.0164 246.5,90.5C 246.973,89.0937 247.973,88.427 249.5,88.5 Z"/></g>
<g><path style="opacity:0.043" fill="#2c4c5f" d="M 161.5,55.5 C 160.84,88.2644 160.174,120.931 159.5,153.5C 158.84,120.483 159.507,87.8163 161.5,55.5 Z"/></g>
<g><path style="opacity:0.026" fill="#8498a6" d="M 99.5,91.5 C 100.497,91.4701 101.164,91.9701 101.5,93C 106.912,116.146 112.245,139.313 117.5,162.5C 117.167,163.167 116.833,163.833 116.5,164.5C 109.961,140.844 103.961,117.01 98.5,93C 99.056,92.6174 99.3893,92.1174 99.5,91.5 Z"/></g>
<g><path style="opacity:0.012" fill="#5d7884" d="M 262.5,84.5 C 270.417,87.0065 273.751,92.3398 272.5,100.5C 271.816,97.3837 270.816,94.3837 269.5,91.5C 267.098,89.0976 264.764,86.7643 262.5,84.5 Z"/></g>
<g><path style="opacity:0.05" fill="#5a7381" d="M 271.5,105.5 C 272.88,105.962 273.547,106.962 273.5,108.5C 273.088,111.83 271.922,114.83 270,117.5C 269.5,117 269,116.5 268.5,116C 269.801,112.596 270.801,109.096 271.5,105.5 Z"/></g>
<g><path style="opacity:0.049" fill="#596f7e" d="M 268.5,122.5 C 269.289,122.783 269.956,123.283 270.5,124C 269.227,128.601 267.727,133.101 266,137.5C 265.308,136.975 264.808,136.308 264.5,135.5C 265.375,130.992 266.709,126.658 268.5,122.5 Z"/></g>
<g><path style="opacity:0.109" fill="#7c969e" d="M 227.5,65.5 C 231.919,69.4279 233.585,74.4279 232.5,80.5C 231.054,104.187 229.388,127.853 227.5,151.5C 227.52,152.726 227.853,153.726 228.5,154.5C 227.791,155.404 226.791,155.737 225.5,155.5C 226.834,130.149 228.501,104.816 230.5,79.5C 230.973,74.4178 229.973,69.7512 227.5,65.5 Z"/></g>
<g><path style="opacity:0.027" fill="#90a0aa" d="M 103.5,83.5 C 109.767,109.92 115.434,136.586 120.5,163.5C 119.167,164.833 119.167,166.167 120.5,167.5C 120.831,175.86 120.498,184.193 119.5,192.5C 118.692,192.192 118.025,191.692 117.5,191C 118.654,179.243 118.821,167.409 118,155.5C 111.964,132.524 106.797,109.357 102.5,86C 102.743,85.0979 103.077,84.2646 103.5,83.5 Z"/></g>
<g><path style="opacity:0.039" fill="#a1b0b2" d="M 261.5,142.5 C 260.752,146.812 260.086,151.146 259.5,155.5C 258.414,155.38 257.747,154.713 257.5,153.5C 258.167,150.5 258.833,147.5 259.5,144.5C 259.747,143.287 260.414,142.62 261.5,142.5 Z"/></g>
<g><path style="opacity:0.041" fill="#667d8e" d="M 263.5,156.5 C 262.5,156.5 261.5,156.5 260.5,156.5C 261.223,152.263 262.557,148.263 264.5,144.5C 264.833,145.333 265.167,146.167 265.5,147C 264.75,150.163 264.084,153.33 263.5,156.5 Z"/></g>
<g><path style="opacity:0.42" fill="#93a7b2" d="M 191.5,150.5 C 191.741,155.375 193.074,155.708 195.5,151.5C 196.434,152.568 196.768,153.901 196.5,155.5C 194.5,155.5 192.5,155.5 190.5,155.5C 190.216,153.585 190.549,151.919 191.5,150.5 Z"/></g>
<g><path style="opacity:0.007" fill="#1e4b58" d="M 260.5,156.5 C 261.5,156.5 262.5,156.5 263.5,156.5C 262.525,159.067 261.858,161.733 261.5,164.5C 260.448,164.649 259.448,164.483 258.5,164C 259.554,161.618 260.221,159.118 260.5,156.5 Z"/></g>
<g><path style="opacity:0.094" fill="#5a6f7c" d="M 75.5,167.5 C 78.8333,166.167 82.1667,166.167 85.5,167.5C 82.1667,167.5 78.8333,167.5 75.5,167.5 Z"/></g>
<g><path style="opacity:0.086" fill="#5e7686" d="M 75.5,167.5 C 71.9022,169.629 68.2355,171.463 64.5,173C 67.3999,169.593 71.0665,167.759 75.5,167.5 Z"/></g>
<g><path style="opacity:0.067" fill="#436073" d="M 85.5,167.5 C 86.791,167.263 87.791,167.596 88.5,168.5C 87.209,168.737 86.209,168.404 85.5,167.5 Z"/></g>
<g><path style="opacity:0.043" fill="#697f8e" d="M 88.5,168.5 C 91.3702,169.433 93.7036,171.1 95.5,173.5C 92.6298,172.567 90.2964,170.9 88.5,168.5 Z"/></g>
<g><path style="opacity:0.037" fill="#627c86" d="M 95.5,173.5 C 98.2921,173.622 100.292,174.956 101.5,177.5C 99.2228,176.551 97.2228,175.218 95.5,173.5 Z"/></g>
<g><path style="opacity:0.055" fill="#517284" d="M 62.5,176.5 C 62.8966,175.475 63.5632,175.308 64.5,176C 63.9056,176.464 63.2389,176.631 62.5,176.5 Z"/></g>
<g><path style="opacity:0.055" fill="#627b7f" d="M 61.5,178.5 C 61.8966,177.475 62.5632,177.308 63.5,178C 62.9056,178.464 62.2389,178.631 61.5,178.5 Z"/></g>
<g><path style="opacity:0.047" fill="#566e7a" d="M 101.5,177.5 C 103.749,178.08 105.415,179.413 106.5,181.5C 104.251,180.92 102.585,179.587 101.5,177.5 Z"/></g>
<g><path style="opacity:0.045" fill="#8d95a4" d="M 60.5,180.5 C 61.5862,180.62 62.2528,181.287 62.5,182.5C 62.1667,183.167 61.8333,183.833 61.5,184.5C 60.5713,183.311 60.238,181.978 60.5,180.5 Z"/></g>
<g><path style="opacity:0.812" fill="#a0adb5" d="M 95.5,177.5 C 98.1092,178.443 100.109,180.11 101.5,182.5C 98.865,181.527 96.865,179.86 95.5,177.5 Z"/></g>
<g><path style="opacity:0.647" fill="#8b9ea5" d="M 71.5,173.5 C 70.2073,175.296 68.7073,176.963 67,178.5C 66.4213,182.203 66.588,185.869 67.5,189.5C 64.391,185.947 63.891,181.947 66,177.5C 67.451,175.536 69.2843,174.203 71.5,173.5 Z"/></g>
<g><path style="opacity:0.263" fill="#788c97" d="M 122.5,180.5 C 123.656,188.323 123.823,196.323 123,204.5C 121.961,203.756 121.461,202.756 121.5,201.5C 122.491,194.687 122.825,187.687 122.5,180.5 Z"/></g>
<g><path style="opacity:0.051" fill="#607786" d="M 106.5,181.5 C 109.225,182.713 111.559,184.546 113.5,187C 110.536,186.228 108.202,184.395 106.5,181.5 Z"/></g>
<g><path style="opacity:0.765" fill="#b0bdc1" d="M 256.5,174.5 C 256.5,175.167 256.5,175.833 256.5,176.5C 256.194,179.385 256.527,182.052 257.5,184.5C 257.065,192.495 256.731,200.495 256.5,208.5C 255.167,197.167 255.167,185.833 256.5,174.5 Z"/></g>
<g><path style="opacity:0.024" fill="#506a76" d="M 105.5,185.5 C 106.833,185.5 107.5,186.167 107.5,187.5C 106.5,187.167 105.833,186.5 105.5,185.5 Z"/></g>
<g><path style="opacity:0.031" fill="#6b757f" d="M 61.5,186.5 C 63.337,186.639 63.6704,187.306 62.5,188.5C 61.7025,188.043 61.3691,187.376 61.5,186.5 Z"/></g>
<g><path style="opacity:0.004" fill="#557480" d="M 114.5,187.5 C 116.085,188.002 116.585,189.002 116,190.5C 114.961,189.756 114.461,188.756 114.5,187.5 Z"/></g>
<g><path style="opacity:0.045" fill="#415e6b" d="M 62.5,190.5 C 62.8966,189.475 63.5632,189.308 64.5,190C 63.9056,190.464 63.2389,190.631 62.5,190.5 Z"/></g>
<g><path style="opacity:0.053" fill="#566771" d="M 63.5,192.5 C 63.8966,191.475 64.5632,191.308 65.5,192C 64.9056,192.464 64.2389,192.631 63.5,192.5 Z"/></g>
<g><path style="opacity:0.386" fill="#9aa6ac" d="M 68.5,191.5 C 70.5869,192.585 71.9202,194.251 72.5,196.5C 70.4131,195.415 69.0798,193.749 68.5,191.5 Z"/></g>
<g><path style="opacity:0.031" fill="#7e909a" d="M 257.5,184.5 C 256.527,182.052 256.194,179.385 256.5,176.5C 257.779,175.032 259.446,174.365 261.5,174.5C 261.832,185.52 261.499,196.52 260.5,207.5C 259.668,197.517 259.168,187.517 259,177.5C 258.338,179.813 257.838,182.146 257.5,184.5 Z"/></g>
<g><path style="opacity:0.037" fill="#6a818c" d="M 73.5,202.5 C 69.7337,200.57 66.7337,197.736 64.5,194C 65.1667,193.333 65.8333,193.333 66.5,194C 68.6677,196.998 71.0011,199.831 73.5,202.5 Z"/></g>
<g><path style="opacity:0.078" fill="#44606c" d="M 116.5,195.5 C 119.562,196.268 121.228,198.268 121.5,201.5C 119.844,199.54 118.177,197.54 116.5,195.5 Z"/></g>
<g><path style="opacity:0.043" fill="#889fa9" d="M 73.5,202.5 C 74.1667,202.5 74.5,202.833 74.5,203.5C 74.1667,203.167 73.8333,202.833 73.5,202.5 Z"/></g>
<g><path style="opacity:0.027" fill="#6a7f8b" d="M 74.5,203.5 C 75.552,203.351 76.552,203.517 77.5,204C 80.8675,207.703 84.5342,211.036 88.5,214C 87.5,214.667 86.5,214.667 85.5,214C 81.9378,210.268 78.2712,206.768 74.5,203.5 Z"/></g>
<g><path style="opacity:0.365" fill="#788c93" d="M 86.5,208.5 C 90.4356,210.766 93.7689,213.766 96.5,217.5C 92.5644,215.234 89.2311,212.234 86.5,208.5 Z"/></g>
<g><path style="opacity:0.012" fill="#9bb7c5" d="M 87.5,216.5 C 87.8966,215.475 88.5632,215.308 89.5,216C 88.9056,216.464 88.2389,216.631 87.5,216.5 Z"/></g>
<g><path style="opacity:0.01" fill="#4b6a79" d="M 258.5,215.5 C 259.777,216.694 260.444,218.36 260.5,220.5C 260.167,222.167 259.833,223.833 259.5,225.5C 258.513,222.232 258.18,218.898 258.5,215.5 Z"/></g>
<g><path style="opacity:0.016" fill="#9cb6c3" d="M 92.5,219.5 C 91.7611,219.631 91.0944,219.464 90.5,219C 91.4368,218.308 92.1034,218.475 92.5,219.5 Z"/></g>
<g><path style="opacity:0.043" fill="#59727c" d="M 98.5,219.5 C 99.8333,220.167 100.833,221.167 101.5,222.5C 99.5,222.5 98.5,221.5 98.5,219.5 Z"/></g>
<g><path style="opacity:0.698" fill="#a0aeb3" d="M 256.5,218.5 C 256.552,220.903 256.219,223.236 255.5,225.5C 254.848,224.551 254.514,223.385 254.5,222C 254.608,220.319 255.275,219.152 256.5,218.5 Z"/></g>
<g><path style="opacity:0.045" fill="#6a828e" d="M 92.5,219.5 C 97.9374,223.102 102.604,227.602 106.5,233C 105.833,233.667 105.167,233.667 104.5,233C 100.584,228.26 96.5836,223.76 92.5,219.5 Z"/></g>
<g><path style="opacity:0.376" fill="#6d808b" d="M 104.5,226.5 C 107.086,227.638 108.753,229.638 109.5,232.5C 107.11,231.109 105.443,229.109 104.5,226.5 Z"/></g>
<g><path style="opacity:0.263" fill="#778690" d="M 255.5,230.5 C 254.89,231.391 254.557,232.391 254.5,233.5C 253.115,232.053 253.448,231.053 255.5,230.5 Z"/></g>
<g><path style="opacity:0.045" fill="#657d89" d="M 257.5,228.5 C 258.649,228.791 259.316,229.624 259.5,231C 259.167,231.833 258.833,232.667 258.5,233.5C 257.548,231.955 257.215,230.288 257.5,228.5 Z"/></g>
<g><path style="opacity:0.471" fill="#5f757f" d="M 109.5,233.5 C 111.741,234.3 112.741,235.966 112.5,238.5C 111.263,237.035 110.263,235.368 109.5,233.5 Z"/></g>
<g><path style="opacity:0.029" fill="#6e8392" d="M 105.5,235.5 C 105.897,234.475 106.563,234.308 107.5,235C 109.014,236.439 109.347,237.939 108.5,239.5C 107.479,238.099 106.479,236.765 105.5,235.5 Z"/></g>
<g><path style="opacity:0.053" fill="#678492" d="M 256.5,235.5 C 258.465,235.948 258.798,236.948 257.5,238.5C 256.614,237.675 256.281,236.675 256.5,235.5 Z"/></g>
<g><path style="opacity:0.145" fill="#a8b1b7" d="M 254.5,236.5 C 253.833,238.167 253.167,239.833 252.5,241.5C 251.167,239.176 251.834,237.509 254.5,236.5 Z"/></g>
<g><path style="opacity:0.067" fill="#657c8c" d="M 108.5,241.5 C 108.897,240.475 109.563,240.308 110.5,241C 109.906,241.464 109.239,241.631 108.5,241.5 Z"/></g>
<g><path style="opacity:0.033" fill="#6d8287" d="M 255.5,239.5 C 257.337,239.639 257.67,240.306 256.5,241.5C 255.702,241.043 255.369,240.376 255.5,239.5 Z"/></g>
<g><path style="opacity:0.075" fill="#587489" d="M 109.5,243.5 C 109.897,242.475 110.563,242.308 111.5,243C 110.906,243.464 110.239,243.631 109.5,243.5 Z"/></g>
<g><path style="opacity:0.043" fill="#637d8e" d="M 254.5,242.5 C 256.337,242.639 256.67,243.306 255.5,244.5C 254.702,244.043 254.369,243.376 254.5,242.5 Z"/></g>
<g><path style="opacity:0.018" fill="#778d9b" d="M 110.5,244.5 C 111.922,244.75 112.922,245.583 113.5,247C 111.511,247.519 110.511,246.686 110.5,244.5 Z"/></g>
<g><path style="opacity:0.027" fill="#46606d" d="M 112.5,238.5 C 114.341,240.849 115.674,243.515 116.5,246.5C 114.127,244.421 112.794,241.754 112.5,238.5 Z"/></g>
<g><path style="opacity:0.035" fill="#6c7f8c" d="M 253.5,245.5 C 255.337,245.639 255.67,246.306 254.5,247.5C 253.702,247.043 253.369,246.376 253.5,245.5 Z"/></g>
<g><path style="opacity:0.324" fill="#aab4bb" d="M 252.5,242.5 C 251.695,244.915 250.695,247.249 249.5,249.5C 248.957,249.44 248.624,249.107 248.5,248.5C 249.098,247.205 249.598,245.872 250,244.5C 250.417,243.244 251.25,242.577 252.5,242.5 Z"/></g>
<g><path style="opacity:0.012" fill="#7d94a1" d="M 252.5,248.5 C 254.337,248.639 254.67,249.306 253.5,250.5C 252.702,250.043 252.369,249.376 252.5,248.5 Z"/></g>
<g><path style="opacity:0.037" fill="#687f89" d="M 112.5,249.5 C 112.897,248.475 113.563,248.308 114.5,249C 116.547,251.054 116.547,252.054 114.5,252C 113.934,251.005 113.267,250.172 112.5,249.5 Z"/></g>
<g><path style="opacity:0.033" fill="#7f8d94" d="M 251.5,252.5 C 251.897,251.475 252.563,251.308 253.5,252C 252.906,252.464 252.239,252.631 251.5,252.5 Z"/></g>
<g><path style="opacity:0.041" fill="#708895" d="M 117.5,254.5 C 116.761,254.631 116.094,254.464 115.5,254C 116.437,253.308 117.103,253.475 117.5,254.5 Z"/></g>
<g><path style="opacity:0.041" fill="#5c7484" d="M 117.5,254.5 C 119.698,254.409 120.031,255.075 118.5,256.5C 117.662,256.158 117.328,255.492 117.5,254.5 Z"/></g>
<g><path style="opacity:0.039" fill="#648290" d="M 118.5,256.5 C 120.973,256.604 121.639,257.604 120.5,259.5C 119.575,258.643 118.908,257.643 118.5,256.5 Z"/></g>
<g><path style="opacity:0.008" fill="#798891" d="M 247.5,261.5 C 247.389,260.883 247.056,260.383 246.5,260C 248.518,258.143 250.185,255.976 251.5,253.5C 251.833,253.833 252.167,254.167 252.5,254.5C 251.057,257.077 249.39,259.41 247.5,261.5 Z"/></g>
<g><path style="opacity:0.037" fill="#4c6876" d="M 121.5,261.5 C 123.07,260.441 124.403,260.941 125.5,263C 123.934,263.3 122.601,262.8 121.5,261.5 Z"/></g>
<g><path style="opacity:0.086" fill="#5e7e8a" d="M 247.5,261.5 C 247.103,262.525 246.437,262.692 245.5,262C 246.094,261.536 246.761,261.369 247.5,261.5 Z"/></g>
<g><path style="opacity:0.22" fill="#93a0a9" d="M 127.5,261.5 C 130.784,263.117 133.451,265.45 135.5,268.5C 132.732,266.913 130.065,265.08 127.5,263C 126.262,262.31 126.262,261.81 127.5,261.5 Z"/></g>
<g><path style="opacity:0.025" fill="#80929b" d="M 133.5,272.5 C 130.437,270.949 127.771,268.782 125.5,266C 129.117,266.764 131.784,268.93 133.5,272.5 Z"/></g>
<g><path style="opacity:0.251" fill="#bbc2c7" d="M 239.5,266.5 C 236.769,270.234 233.436,273.234 229.5,275.5C 232.231,271.766 235.564,268.766 239.5,266.5 Z"/></g>
<g><path style="opacity:0.048" fill="#677b88" d="M 233.5,277.5 C 237.545,273.62 241.045,269.287 244,264.5C 244.718,263.549 245.551,263.383 246.5,264C 243.314,269.684 238.981,274.184 233.5,277.5 Z"/></g>
<g><path style="opacity:0.047" fill="#4d6877" d="M 133.5,272.5 C 135.196,272.685 136.529,273.519 137.5,275C 135.588,275.279 134.254,274.446 133.5,272.5 Z"/></g>
<g><path style="opacity:0.029" fill="#788c9b" d="M 142.5,278.5 C 141.078,278.291 139.745,277.791 138.5,277C 140.352,276.227 141.686,276.727 142.5,278.5 Z"/></g>
<g><path style="opacity:0.035" fill="#475a67" d="M 233.5,277.5 C 233.027,278.906 232.027,279.573 230.5,279.5C 230.973,278.094 231.973,277.427 233.5,277.5 Z"/></g>
<g><path style="opacity:0.027" fill="#6c7f91" d="M 142.5,278.5 C 144.674,278.75 146.341,279.75 147.5,281.5C 145.326,281.25 143.659,280.25 142.5,278.5 Z"/></g>
<g><path style="opacity:0.024" fill="#516a7d" d="M 230.5,279.5 C 229.998,281.085 228.998,281.585 227.5,281C 228.244,279.961 229.244,279.461 230.5,279.5 Z"/></g>
<g><path style="opacity:0.051" fill="#6a8186" d="M 147.5,281.5 C 148.492,281.328 149.158,281.662 149.5,282.5C 148.508,282.672 147.842,282.338 147.5,281.5 Z"/></g>
<g><path style="opacity:0.075" fill="#596d7a" d="M 224.5,282.5 C 224.897,281.475 225.563,281.308 226.5,282C 225.906,282.464 225.239,282.631 224.5,282.5 Z"/></g>
<g><path style="opacity:0.059" fill="#5f778e" d="M 149.5,282.5 C 150.791,282.263 151.791,282.596 152.5,283.5C 151.209,283.737 150.209,283.404 149.5,282.5 Z"/></g>
<g><path style="opacity:0.059" fill="#496d80" d="M 221.5,283.5 C 222.209,282.596 223.209,282.263 224.5,282.5C 223.791,283.404 222.791,283.737 221.5,283.5 Z"/></g>
<g><path style="opacity:0.067" fill="#5e7479" d="M 152.5,283.5 C 153.492,283.328 154.158,283.662 154.5,284.5C 153.508,284.672 152.842,284.338 152.5,283.5 Z"/></g>
<g><path style="opacity:0.075" fill="#556c77" d="M 219.5,284.5 C 219.842,283.662 220.508,283.328 221.5,283.5C 221.158,284.338 220.492,284.672 219.5,284.5 Z"/></g>
<g><path style="opacity:0.082" fill="#607a88" d="M 154.5,284.5 C 155.791,284.263 156.791,284.596 157.5,285.5C 156.209,285.737 155.209,285.404 154.5,284.5 Z"/></g>
<g><path style="opacity:0.008" fill="#657b88" d="M 219.5,284.5 C 218.399,285.598 217.066,285.765 215.5,285C 216.793,284.51 218.127,284.343 219.5,284.5 Z"/></g>
<g><path style="opacity:0.047" fill="#778a97" d="M 157.5,285.5 C 158.552,285.351 159.552,285.517 160.5,286C 159.251,286.74 158.251,286.573 157.5,285.5 Z"/></g>
<g><path style="opacity:0.035" fill="#537881" d="M 210.5,286.5 C 211.601,285.402 212.934,285.235 214.5,286C 213.207,286.49 211.873,286.657 210.5,286.5 Z"/></g>
<g><path style="opacity:0.016" fill="#516c80" d="M 162.5,287.5 C 163.601,286.402 164.934,286.235 166.5,287C 165.207,287.49 163.873,287.657 162.5,287.5 Z"/></g>
<g><path style="opacity:0.09" fill="#5b7580" d="M 203.5,287.5 C 205.288,286.378 207.288,286.211 209.5,287C 207.527,287.495 205.527,287.662 203.5,287.5 Z"/></g>
<g><path style="opacity:0.086" fill="#667986" d="M 168.5,288.5 C 178.658,287.341 188.992,287.175 199.5,288C 189.172,288.5 178.839,288.666 168.5,288.5 Z"/></g>
</svg>
