<?xml version="1.0" encoding="UTF-8"?>
<!DOCTYPE svg PUBLIC "-//W3C//DTD SVG 1.1//EN" "http://www.w3.org/Graphics/SVG/1.1/DTD/svg11.dtd">
<svg xmlns="http://www.w3.org/2000/svg" viewBox="0 0 333.000000 333.000000" version="1.1" width="40px" height="32px" style="shape-rendering:geometricPrecision; text-rendering:geometricPrecision; image-rendering:optimizeQuality; fill-rule:evenodd; clip-rule:evenodd" xmlns:xlink="http://www.w3.org/1999/xlink">
<g><path style="opacity:0.084" fill="#7a838c" d="M 177.5,43.5 C 179.966,42.3659 182.633,42.1993 185.5,43C 182.854,43.4974 180.187,43.6641 177.5,43.5 Z"/></g>
<g><path style="opacity:0.09" fill="#5d7e91" d="M 172.5,44.5 C 173.251,43.4265 174.251,43.2599 175.5,44C 174.552,44.4828 173.552,44.6495 172.5,44.5 Z"/></g>
<g><path style="opacity:0.043" fill="#738c9c" d="M 187.5,44.5 C 187.897,43.475 188.563,43.3083 189.5,44C 188.906,44.4643 188.239,44.631 187.5,44.5 Z"/></g>
<g><path style="opacity:0.047" fill="#506674" d="M 170.5,45.5 C 170.842,44.6618 171.508,44.3284 172.5,44.5C 172.158,45.3382 171.492,45.6716 170.5,45.5 Z"/></g>
<g><path style="opacity:0.075" fill="#73868f" d="M 191.5,45.5 C 190.833,44.1667 190.833,44.1667 191.5,45.5 Z"/></g>
<g><path style="opacity:0.043" fill="#4f6676" d="M 168.5,46.5 C 168.842,45.6618 169.508,45.3284 170.5,45.5C 170.158,46.3382 169.492,46.6716 168.5,46.5 Z"/></g>
<g><path style="opacity:0.02" fill="#6e8592" d="M 191.5,45.5 C 192.492,45.3284 193.158,45.6618 193.5,46.5C 192.508,46.6716 191.842,46.3382 191.5,45.5 Z"/></g>
<g><path style="opacity:0.086" fill="#5f7682" d="M 168.5,46.5 C 167.833,47.1667 167.833,47.1667 168.5,46.5 Z"/></g>
<g><path style="opacity:0.031" fill="#8ea5b1" d="M 193.5,46.5 C 194.167,46.5 194.5,46.8333 194.5,47.5C 194.167,47.1667 193.833,46.8333 193.5,46.5 Z"/></g>
<g><path style="opacity:0.082" fill="#4e6675" d="M 167.5,47.5 C 166.833,48.1667 166.833,48.1667 167.5,47.5 Z"/></g>
<g><path style="opacity:0.998" fill="#fcfcfc" d="M 191.5,49.5 C 191.427,51.0269 192.094,52.0269 193.5,52.5C 194.633,54.0552 195.299,55.8886 195.5,58C 194.599,89.658 194.266,121.491 194.5,153.5C 194.62,154.586 195.287,155.253 196.5,155.5C 197.713,155.253 198.38,154.586 198.5,153.5C 198.823,125.814 198.489,97.9805 197.5,70C 198.376,67.8542 199.709,66.0208 201.5,64.5C 205.797,62.5786 210.131,61.5786 214.5,61.5C 220.469,62.1252 224.469,65.1252 226.5,70.5C 226.5,98.8333 226.5,127.167 226.5,155.5C 228.099,155.768 229.432,155.434 230.5,154.5C 230.5,132.167 230.5,109.833 230.5,87.5C 231.906,87.0269 232.573,86.0269 232.5,84.5C 232.5,83.8333 232.833,83.5 233.5,83.5C 235.027,83.573 236.027,82.9063 236.5,81.5C 247.259,80.4089 253.093,85.4089 254,96.5C 257.075,139.141 257.741,181.808 256,224.5C 254.218,244.227 246.384,261.061 232.5,275C 226.048,279.058 219.048,281.724 211.5,283C 198.862,284.428 186.196,284.761 173.5,284C 158.463,281.82 146.129,274.986 136.5,263.5C 135.833,262.167 134.833,261.167 133.5,260.5C 126.235,252.319 120.735,242.985 117,232.5C 112.289,227.294 107.789,221.961 103.5,216.5C 103.167,215.5 102.5,214.833 101.5,214.5C 101.167,213.5 100.5,212.833 99.5,212.5C 98.5,212.167 97.8333,211.5 97.5,210.5C 97.0269,209.094 96.0269,208.427 94.5,208.5C 90.5268,204.699 86.3602,201.032 82,197.5C 76.5556,192.284 74.2223,185.951 75,178.5C 80.9345,170.248 88.4345,168.415 97.5,173C 107.619,180.287 116.952,188.453 125.5,197.5C 125.427,199.027 126.094,200.027 127.5,200.5C 127.685,202.196 128.519,203.529 130,204.5C 130.5,162.835 130.667,121.168 130.5,79.5C 132.801,65.0511 140.801,60.5511 154.5,66C 156.063,66.7589 157.063,67.9256 157.5,69.5C 157.427,71.0269 158.094,72.0269 159.5,72.5C 160.904,76.7105 161.904,81.0438 162.5,85.5C 161.531,107.746 161.198,129.912 161.5,152C 162.275,153.23 163.275,153.563 164.5,153C 164.651,121.508 164.818,89.6745 165,57.5C 168.88,48.5239 175.713,45.0239 185.5,47C 187.852,47.2401 189.852,48.0735 191.5,49.5 Z"/></g>
<g><path style="opacity:0.027" fill="#8fa2af" d="M 194.5,47.5 C 195.833,48.1667 195.833,48.1667 194.5,47.5 Z"/></g>
<g><path style="opacity:0.086" fill="#526a79" d="M 166.5,48.5 C 165.833,49.1667 165.833,49.1667 166.5,48.5 Z"/></g>
<g><path style="opacity:0.082" fill="#657e87" d="M 165.5,49.5 C 164.833,50.1667 164.833,50.1667 165.5,49.5 Z"/></g>
<g><path style="opacity:0.063" fill="#3b5660" d="M 196.5,50.5 C 195.833,49.1667 195.833,49.1667 196.5,50.5 Z"/></g>
<g><path style="opacity:0.024" fill="#466678" d="M 164.5,50.5 C 164.672,51.4916 164.338,52.1583 163.5,52.5C 163.328,51.5084 163.662,50.8417 164.5,50.5 Z"/></g>
<g><path style="opacity:0.118" fill="#4d6b7b" d="M 191.5,49.5 C 192.906,49.9731 193.573,50.9731 193.5,52.5C 192.094,52.0269 191.427,51.0269 191.5,49.5 Z"/></g>
<g><path style="opacity:0.031" fill="#486374" d="M 196.5,50.5 C 197.338,50.8417 197.672,51.5084 197.5,52.5C 196.662,52.1583 196.328,51.4916 196.5,50.5 Z"/></g>
<g><path style="opacity:0.078" fill="#5a6f81" d="M 163.5,52.5 C 163.631,53.2389 163.464,53.9056 163,54.5C 162.308,53.5632 162.475,52.8966 163.5,52.5 Z"/></g>
<g><path style="opacity:0.082" fill="#687f8f" d="M 197.5,52.5 C 198.573,53.2506 198.74,54.2506 198,55.5C 197.517,54.552 197.351,53.552 197.5,52.5 Z"/></g>
<g><path style="opacity:0.071" fill="#54707b" d="M 161.5,55.5 C 162.525,55.8966 162.692,56.5632 162,57.5C 161.536,56.9056 161.369,56.2389 161.5,55.5 Z"/></g>
<g><path style="opacity:0.035" fill="#8c97a2" d="M 198.5,58.5 C 199.833,59.1667 199.833,59.1667 198.5,58.5 Z"/></g>
<g><path style="opacity:0.043" fill="#4f6469" d="M 204.5,59.5 C 205.601,58.4017 206.934,58.235 208.5,59C 207.207,59.49 205.873,59.6567 204.5,59.5 Z"/></g>
<g><path style="opacity:0.086" fill="#546b6f" d="M 216.5,59.5 C 217.251,58.4265 218.251,58.2599 219.5,59C 218.552,59.4828 217.552,59.6495 216.5,59.5 Z"/></g>
<g><path style="opacity:0.043" fill="#8a96a4" d="M 143.5,60.5 C 144.946,59.3871 146.613,59.2204 148.5,60C 146.866,60.4935 145.199,60.6602 143.5,60.5 Z"/></g>
<g><path style="opacity:0.09" fill="#5e7282" d="M 202.5,59.5 C 203.833,60.1667 203.833,60.1667 202.5,59.5 Z"/></g>
<g><path style="opacity:0.016" fill="#778a94" d="M 222.5,60.5 C 221.761,60.631 221.094,60.4643 220.5,60C 221.437,59.3083 222.103,59.475 222.5,60.5 Z"/></g>
<g><path style="opacity:0.02" fill="#3c596a" d="M 139.5,61.5 C 139.897,60.475 140.563,60.3083 141.5,61C 140.906,61.4643 140.239,61.631 139.5,61.5 Z"/></g>
<g><path style="opacity:0.016" fill="#788d96" d="M 153.5,61.5 C 152.761,61.631 152.094,61.4643 151.5,61C 152.437,60.3083 153.103,60.475 153.5,61.5 Z"/></g>
<g><path style="opacity:0.071" fill="#405461" d="M 222.5,60.5 C 223.833,61.1667 223.833,61.1667 222.5,60.5 Z"/></g>
<g><path style="opacity:0.039" fill="#4c626b" d="M 136.5,62.5 C 136.897,61.475 137.563,61.3083 138.5,62C 137.906,62.4643 137.239,62.631 136.5,62.5 Z"/></g>
<g><path style="opacity:0.067" fill="#627a89" d="M 153.5,61.5 C 154.492,61.3284 155.158,61.6618 155.5,62.5C 154.508,62.6716 153.842,62.3382 153.5,61.5 Z"/></g>
<g><path style="opacity:0.031" fill="#556b7d" d="M 199.5,60.5 C 201.975,60.7467 201.975,61.4134 199.5,62.5C 198.537,62.0302 198.537,61.3635 199.5,60.5 Z"/></g>
<g><path style="opacity:0.067" fill="#798894" d="M 225.5,62.5 C 224.833,61.1667 224.833,61.1667 225.5,62.5 Z"/></g>
<g><path style="opacity:0.067" fill="#405662" d="M 136.5,62.5 C 135.833,63.1667 135.833,63.1667 136.5,62.5 Z"/></g>
<g><path style="opacity:0.051" fill="#355264" d="M 155.5,62.5 C 156.833,63.1667 156.833,63.1667 155.5,62.5 Z"/></g>
<g><path style="opacity:0.078" fill="#6d8491" d="M 225.5,62.5 C 226.167,62.5 226.5,62.8333 226.5,63.5C 226.167,63.1667 225.833,62.8333 225.5,62.5 Z"/></g>
<g><path style="opacity:0.02" fill="#92a4ab" d="M 133.5,63.5 C 134.833,64.1667 134.833,64.1667 133.5,63.5 Z"/></g>
<g><path style="opacity:0.016" fill="#94a3af" d="M 158.5,64.5 C 157.833,63.1667 157.833,63.1667 158.5,64.5 Z"/></g>
<g><path style="opacity:0.078" fill="#70838c" d="M 226.5,63.5 C 227.167,63.5 227.5,63.8333 227.5,64.5C 227.167,64.1667 226.833,63.8333 226.5,63.5 Z"/></g>
<g><path style="opacity:0.071" fill="#758893" d="M 133.5,64.5 C 132.833,65.1667 132.833,65.1667 133.5,64.5 Z"/></g>
<g><path style="opacity:0.047" fill="#8697a3" d="M 158.5,64.5 C 159.167,64.5 159.5,64.8333 159.5,65.5C 159.167,65.1667 158.833,64.8333 158.5,64.5 Z"/></g>
<g><path style="opacity:0.039" fill="#8aa0b0" d="M 132.5,65.5 C 131.833,66.1667 131.833,66.1667 132.5,65.5 Z"/></g>
<g><path style="opacity:0.047" fill="#85a3b0" d="M 159.5,65.5 C 160.833,66.1667 160.833,66.1667 159.5,65.5 Z"/></g>
<g><path style="opacity:0.02" fill="#4a616c" d="M 227.5,64.5 C 228.338,64.8417 228.672,65.5084 228.5,66.5C 227.662,66.1583 227.328,65.4916 227.5,64.5 Z"/></g>
<g><path style="opacity:0.078" fill="#708791" d="M 228.5,66.5 C 229.833,67.1667 229.833,67.1667 228.5,66.5 Z"/></g>
<g><path style="opacity:0.075" fill="#2f5e78" d="M 160.5,67.5 C 161.833,68.1667 161.833,68.1667 160.5,67.5 Z"/></g>
<g><path style="opacity:0.059" fill="#7d8c96" d="M 129.5,68.5 C 130.833,69.1667 130.833,69.1667 129.5,68.5 Z"/></g>
<g><path style="opacity:0.078" fill="#5d7783" d="M 229.5,68.5 C 230.525,68.8966 230.692,69.5632 230,70.5C 229.536,69.9056 229.369,69.2389 229.5,68.5 Z"/></g>
<g><path style="opacity:0.02" fill="#415b76" d="M 128.5,72.5 C 128.369,71.7611 128.536,71.0944 129,70.5C 129.692,71.4368 129.525,72.1034 128.5,72.5 Z"/></g>
<g><path style="opacity:0.4" fill="#80949f" d="M 157.5,69.5 C 158.906,69.9731 159.573,70.9731 159.5,72.5C 158.094,72.0269 157.427,71.0269 157.5,69.5 Z"/></g>
<g><path style="opacity:0.086" fill="#677a82" d="M 128.5,72.5 C 128.649,73.552 128.483,74.552 128,75.5C 127.26,74.2506 127.427,73.2506 128.5,72.5 Z"/></g>
<g><path style="opacity:0.02" fill="#828d9b" d="M 232.5,79.5 C 232.217,80.2891 231.717,80.9558 231,81.5C 230.333,78.5 230.333,75.5 231,72.5C 231.186,75.0356 231.686,77.369 232.5,79.5 Z"/></g>
<g><path style="opacity:0.016" fill="#93a2ac" d="M 240.5,76.5 C 241.833,77.1667 241.833,77.1667 240.5,76.5 Z"/></g>
<g><path style="opacity:0.055" fill="#455f6d" d="M 235.5,78.5 C 235.897,77.475 236.563,77.3083 237.5,78C 236.906,78.4643 236.239,78.631 235.5,78.5 Z"/></g>
<g><path style="opacity:0.082" fill="#69808d" d="M 247.5,78.5 C 246.448,78.6495 245.448,78.4828 244.5,78C 245.749,77.2599 246.749,77.4265 247.5,78.5 Z"/></g>
<g><path style="opacity:0.063" fill="#576e84" d="M 232.5,79.5 C 232.897,78.475 233.563,78.3083 234.5,79C 233.906,79.4643 233.239,79.631 232.5,79.5 Z"/></g>
<g><path style="opacity:0.016" fill="#768c99" d="M 247.5,78.5 C 248.492,78.3284 249.158,78.6618 249.5,79.5C 248.508,79.6716 247.842,79.3382 247.5,78.5 Z"/></g>
<g><path style="opacity:0.012" fill="#415a67" d="M 126.5,76.5 C 127.598,77.6009 127.765,78.9343 127,80.5C 126.51,79.2068 126.343,77.8734 126.5,76.5 Z"/></g>
<g><path style="opacity:0.086" fill="#687f8b" d="M 249.5,79.5 C 250.167,79.5 250.5,79.8333 250.5,80.5C 250.167,80.1667 249.833,79.8333 249.5,79.5 Z"/></g>
<g><path style="opacity:0.012" fill="#6a818d" d="M 250.5,80.5 C 252.5,80.5 253.5,81.5 253.5,83.5C 252.167,82.8333 251.167,81.8333 250.5,80.5 Z"/></g>
<g><path style="opacity:0.702" fill="#8198a2" d="M 236.5,81.5 C 236.027,82.9063 235.027,83.573 233.5,83.5C 233.973,82.0937 234.973,81.427 236.5,81.5 Z"/></g>
<g><path style="opacity:0.051" fill="#8497a5" d="M 125.5,83.5 C 126.83,119.669 126.83,156.002 125.5,192.5C 125.484,156.345 125.484,120.011 125.5,83.5 Z"/></g>
<g><path style="opacity:0.086" fill="#567b83" d="M 253.5,83.5 C 254.167,83.5 254.5,83.8333 254.5,84.5C 254.167,84.1667 253.833,83.8333 253.5,83.5 Z"/></g>
<g><path style="opacity:0.027" fill="#4c656e" d="M 254.5,84.5 C 255.338,84.8417 255.672,85.5084 255.5,86.5C 254.662,86.1583 254.328,85.4916 254.5,84.5 Z"/></g>
<g><path style="opacity:0.243" fill="#647a86" d="M 232.5,84.5 C 232.573,86.0269 231.906,87.0269 230.5,87.5C 230.427,85.9731 231.094,84.9731 232.5,84.5 Z"/></g>
<g><path style="opacity:0.027" fill="#476178" d="M 255.5,86.5 C 256.338,86.8417 256.672,87.5084 256.5,88.5C 255.662,88.1583 255.328,87.4916 255.5,86.5 Z"/></g>
<g><path style="opacity:0.082" fill="#697f81" d="M 256.5,88.5 C 257.525,88.8966 257.692,89.5632 257,90.5C 256.536,89.9056 256.369,89.2389 256.5,88.5 Z"/></g>
<g><path style="opacity:0.424" fill="#8598a1" d="M 130.5,79.5 C 130.667,121.168 130.5,162.835 130,204.5C 128.519,203.529 127.685,202.196 127.5,200.5C 128.117,200.611 128.617,200.944 129,201.5C 129.167,160.665 129.667,119.998 130.5,79.5 Z"/></g>
<g><path style="opacity:0.345" fill="#7a959d" d="M 226.5,70.5 C 227.498,98.3284 227.831,126.328 227.5,154.5C 228.5,154.5 229.5,154.5 230.5,154.5C 229.432,155.434 228.099,155.768 226.5,155.5C 226.5,127.167 226.5,98.8333 226.5,70.5 Z"/></g>
<g><path style="opacity:0.033" fill="#445f6d" d="M 257.5,96.5 C 258.645,100.311 258.812,104.311 258,108.5C 257.501,104.514 257.334,100.514 257.5,96.5 Z"/></g>
<g><path style="opacity:0.09" fill="#5c7280" d="M 258.5,113.5 C 259.648,117.981 259.815,122.648 259,127.5C 258.501,122.845 258.334,118.179 258.5,113.5 Z"/></g>
<g><path style="opacity:0.014" fill="#3e606f" d="M 259.5,135.5 C 260.654,141.987 260.821,148.654 260,155.5C 259.5,148.842 259.334,142.175 259.5,135.5 Z"/></g>
<g><path style="opacity:0.376" fill="#6c8899" d="M 194.5,153.5 C 195.833,154.833 197.167,154.833 198.5,153.5C 198.38,154.586 197.713,155.253 196.5,155.5C 195.287,155.253 194.62,154.586 194.5,153.5 Z"/></g>
<g><path style="opacity:0.075" fill="#586c7a" d="M 84.5,167.5 C 87.3035,166.362 90.3035,166.195 93.5,167C 90.5184,167.498 87.5184,167.665 84.5,167.5 Z"/></g>
<g><path style="opacity:0.086" fill="#637989" d="M 81.5,168.5 C 81.8966,167.475 82.5632,167.308 83.5,168C 82.9056,168.464 82.2389,168.631 81.5,168.5 Z"/></g>
<g><path style="opacity:0.086" fill="#516d7f" d="M 94.5,168.5 C 94.8966,167.475 95.5632,167.308 96.5,168C 95.9056,168.464 95.2389,168.631 94.5,168.5 Z"/></g>
<g><path style="opacity:0.012" fill="#476576" d="M 79.5,169.5 C 79.8417,168.662 80.5084,168.328 81.5,168.5C 81.1583,169.338 80.4916,169.672 79.5,169.5 Z"/></g>
<g><path style="opacity:0.059" fill="#7d919e" d="M 98.5,169.5 C 97.8333,168.167 97.8333,168.167 98.5,169.5 Z"/></g>
<g><path style="opacity:0.086" fill="#55727f" d="M 79.5,169.5 C 78.8333,170.167 78.8333,170.167 79.5,169.5 Z"/></g>
<g><path style="opacity:0.086" fill="#5d7488" d="M 98.5,169.5 C 99.1667,169.5 99.5,169.833 99.5,170.5C 99.1667,170.167 98.8333,169.833 98.5,169.5 Z"/></g>
<g><path style="opacity:0.039" fill="#506173" d="M 76.5,171.5 C 76.8417,170.662 77.5084,170.328 78.5,170.5C 78.1583,171.338 77.4916,171.672 76.5,171.5 Z"/></g>
<g><path style="opacity:0.027" fill="#6e7a8a" d="M 99.5,170.5 C 100.492,170.328 101.158,170.662 101.5,171.5C 100.508,171.672 99.8417,171.338 99.5,170.5 Z"/></g>
<g><path style="opacity:0.039" fill="#89a2ab" d="M 76.5,171.5 C 75.8333,172.167 75.8333,172.167 76.5,171.5 Z"/></g>
<g><path style="opacity:0.082" fill="#6c8a97" d="M 101.5,171.5 C 102.167,171.5 102.5,171.833 102.5,172.5C 102.167,172.167 101.833,171.833 101.5,171.5 Z"/></g>
<g><path style="opacity:0.039" fill="#899ea8" d="M 75.5,172.5 C 74.8333,173.167 74.8333,173.167 75.5,172.5 Z"/></g>
<g><path style="opacity:0.086" fill="#526a77" d="M 102.5,172.5 C 103.167,172.5 103.5,172.833 103.5,173.5C 103.167,173.167 102.833,172.833 102.5,172.5 Z"/></g>
<g><path style="opacity:0.031" fill="#6a808d" d="M 103.5,173.5 C 104.492,173.328 105.158,173.662 105.5,174.5C 104.508,174.672 103.842,174.338 103.5,173.5 Z"/></g>
<g><path style="opacity:0.071" fill="#779399" d="M 105.5,174.5 C 106.167,174.5 106.5,174.833 106.5,175.5C 106.167,175.167 105.833,174.833 105.5,174.5 Z"/></g>
<g><path style="opacity:0.086" fill="#517284" d="M 72.5,175.5 C 73.8333,176.167 73.8333,176.167 72.5,175.5 Z"/></g>
<g><path style="opacity:0.086" fill="#5b747d" d="M 106.5,175.5 C 107.167,175.5 107.5,175.833 107.5,176.5C 107.167,176.167 106.833,175.833 106.5,175.5 Z"/></g>
<g><path style="opacity:0.059" fill="#395562" d="M 107.5,176.5 C 108.833,177.167 108.833,177.167 107.5,176.5 Z"/></g>
<g><path style="opacity:0.09" fill="#5e787c" d="M 71.5,177.5 C 72.8333,178.167 72.8333,178.167 71.5,177.5 Z"/></g>
<g><path style="opacity:0.059" fill="#7d96a1" d="M 110.5,178.5 C 109.833,177.167 109.833,177.167 110.5,178.5 Z"/></g>
<g><path style="opacity:0.082" fill="#657879" d="M 110.5,178.5 C 111.167,178.5 111.5,178.833 111.5,179.5C 111.167,179.167 110.833,178.833 110.5,178.5 Z"/></g>
<g><path style="opacity:0.082" fill="#50697c" d="M 111.5,179.5 C 112.167,179.5 112.5,179.833 112.5,180.5C 112.167,180.167 111.833,179.833 111.5,179.5 Z"/></g>
<g><path style="opacity:0.035" fill="#2d4d59" d="M 112.5,180.5 C 113.833,181.167 113.833,181.167 112.5,180.5 Z"/></g>
<g><path style="opacity:0.045" fill="#8b94a3" d="M 70.5,180.5 C 71.5983,181.601 71.765,182.934 71,184.5C 70.51,183.207 70.3433,181.873 70.5,180.5 Z"/></g>
<g><path style="opacity:0.039" fill="#8aa1ae" d="M 115.5,182.5 C 114.833,181.167 114.833,181.167 115.5,182.5 Z"/></g>
<g><path style="opacity:0.043" fill="#879ba8" d="M 115.5,182.5 C 116.167,182.5 116.5,182.833 116.5,183.5C 116.167,183.167 115.833,182.833 115.5,182.5 Z"/></g>
<g><path style="opacity:0.082" fill="#6b828c" d="M 116.5,183.5 C 117.167,183.5 117.5,183.833 117.5,184.5C 117.167,184.167 116.833,183.833 116.5,183.5 Z"/></g>
<g><path style="opacity:0.086" fill="#566f7a" d="M 117.5,184.5 C 118.167,184.5 118.5,184.833 118.5,185.5C 118.167,185.167 117.833,184.833 117.5,184.5 Z"/></g>
<g><path style="opacity:0.082" fill="#4b6477" d="M 118.5,185.5 C 119.167,185.5 119.5,185.833 119.5,186.5C 119.167,186.167 118.833,185.833 118.5,185.5 Z"/></g>
<g><path style="opacity:0.059" fill="#3c566f" d="M 119.5,186.5 C 120.833,187.167 120.833,187.167 119.5,186.5 Z"/></g>
<g><path style="opacity:0.055" fill="#6a7680" d="M 71.5,186.5 C 72.525,186.897 72.6917,187.563 72,188.5C 71.5357,187.906 71.369,187.239 71.5,186.5 Z"/></g>
<g><path style="opacity:0.004" fill="#506f7c" d="M 121.5,187.5 C 123.085,188.002 123.585,189.002 123,190.5C 121.961,189.756 121.461,188.756 121.5,187.5 Z"/></g>
<g><path style="opacity:0.071" fill="#415e6b" d="M 72.5,189.5 C 73.8333,190.167 73.8333,190.167 72.5,189.5 Z"/></g>
<g><path style="opacity:0.086" fill="#546770" d="M 73.5,191.5 C 74.8333,192.167 74.8333,192.167 73.5,191.5 Z"/></g>
<g><path style="opacity:0.082" fill="#6b7f8c" d="M 75.5,194.5 C 74.8333,193.167 74.8333,193.167 75.5,194.5 Z"/></g>
<g><path style="opacity:0.016" fill="#68808b" d="M 75.5,194.5 C 76.9063,194.973 77.573,195.973 77.5,197.5C 76.0937,197.027 75.427,196.027 75.5,194.5 Z"/></g>
<g><path style="opacity:0.051" fill="#7c8e99" d="M 260.5,166.5 C 261.661,179.994 261.827,193.66 261,207.5C 260.5,193.837 260.333,180.171 260.5,166.5 Z"/></g>
<g><path style="opacity:0.067" fill="#7a919d" d="M 77.5,197.5 C 78.1667,197.5 78.5,197.833 78.5,198.5C 78.1667,198.167 77.8333,197.833 77.5,197.5 Z"/></g>
<g><path style="opacity:0.082" fill="#6b828e" d="M 78.5,198.5 C 79.1667,198.5 79.5,198.833 79.5,199.5C 79.1667,199.167 78.8333,198.833 78.5,198.5 Z"/></g>
<g><path style="opacity:0.082" fill="#697e86" d="M 79.5,199.5 C 80.1667,199.5 80.5,199.833 80.5,200.5C 80.1667,200.167 79.8333,199.833 79.5,199.5 Z"/></g>
<g><path style="opacity:0.314" fill="#6b838c" d="M 125.5,197.5 C 126.906,197.973 127.573,198.973 127.5,200.5C 126.094,200.027 125.427,199.027 125.5,197.5 Z"/></g>
<g><path style="opacity:0.082" fill="#6a7e8e" d="M 80.5,200.5 C 81.1667,200.5 81.5,200.833 81.5,201.5C 81.1667,201.167 80.8333,200.833 80.5,200.5 Z"/></g>
<g><path style="opacity:0.059" fill="#809096" d="M 81.5,201.5 C 82.1667,201.5 82.5,201.833 82.5,202.5C 82.1667,202.167 81.8333,201.833 81.5,201.5 Z"/></g>
<g><path style="opacity:0.043" fill="#889fa9" d="M 82.5,202.5 C 83.1667,202.5 83.5,202.833 83.5,203.5C 83.1667,203.167 82.8333,202.833 82.5,202.5 Z"/></g>
<g><path style="opacity:0.031" fill="#566d78" d="M 83.5,203.5 C 85.0269,203.427 86.0269,204.094 86.5,205.5C 84.9731,205.573 83.9731,204.906 83.5,203.5 Z"/></g>
<g><path style="opacity:0.082" fill="#4b6772" d="M 86.5,205.5 C 87.1667,205.5 87.5,205.833 87.5,206.5C 87.1667,206.167 86.8333,205.833 86.5,205.5 Z"/></g>
<g><path style="opacity:0.082" fill="#4e6066" d="M 87.5,206.5 C 88.1667,206.5 88.5,206.833 88.5,207.5C 88.1667,207.167 87.8333,206.833 87.5,206.5 Z"/></g>
<g><path style="opacity:0.082" fill="#65848e" d="M 88.5,207.5 C 89.1667,207.5 89.5,207.833 89.5,208.5C 89.1667,208.167 88.8333,207.833 88.5,207.5 Z"/></g>
<g><path style="opacity:0.086" fill="#5f7680" d="M 89.5,208.5 C 90.1667,208.5 90.5,208.833 90.5,209.5C 90.1667,209.167 89.8333,208.833 89.5,208.5 Z"/></g>
<g><path style="opacity:0.537" fill="#728892" d="M 94.5,208.5 C 96.0269,208.427 97.0269,209.094 97.5,210.5C 95.9731,210.573 94.9731,209.906 94.5,208.5 Z"/></g>
<g><path style="opacity:0.071" fill="#788b96" d="M 90.5,209.5 C 91.1667,209.5 91.5,209.833 91.5,210.5C 91.1667,210.167 90.8333,209.833 90.5,209.5 Z"/></g>
<g><path style="opacity:0.031" fill="#8da4b1" d="M 91.5,210.5 C 92.1667,210.5 92.5,210.833 92.5,211.5C 92.1667,211.167 91.8333,210.833 91.5,210.5 Z"/></g>
<g><path style="opacity:0.004" fill="#536672" d="M 92.5,211.5 C 93.8333,211.5 94.5,212.167 94.5,213.5C 93.5,213.167 92.8333,212.5 92.5,211.5 Z"/></g>
<g><path style="opacity:0.031" fill="#4a6270" d="M 94.5,213.5 C 95.2389,213.369 95.9056,213.536 96.5,214C 95.5632,214.692 94.8966,214.525 94.5,213.5 Z"/></g>
<g><path style="opacity:0.008" fill="#4c6772" d="M 99.5,212.5 C 100.5,212.833 101.167,213.5 101.5,214.5C 100.167,214.5 99.5,213.833 99.5,212.5 Z"/></g>
<g><path style="opacity:0.016" fill="#9ab7c4" d="M 96.5,215.5 C 97.8333,216.167 97.8333,216.167 96.5,215.5 Z"/></g>
<g><path style="opacity:0.008" fill="#4c6772" d="M 101.5,214.5 C 102.5,214.833 103.167,215.5 103.5,216.5C 102.167,216.5 101.5,215.833 101.5,214.5 Z"/></g>
<g><path style="opacity:0.016" fill="#4b6a79" d="M 259.5,215.5 C 260.641,218.64 260.808,221.973 260,225.5C 259.502,222.183 259.335,218.85 259.5,215.5 Z"/></g>
<g><path style="opacity:0.016" fill="#9ab7c4" d="M 100.5,219.5 C 99.8333,218.167 99.8333,218.167 100.5,219.5 Z"/></g>
<g><path style="opacity:0.012" fill="#59747f" d="M 100.5,219.5 C 102.833,219.833 104.167,221.167 104.5,223.5C 102.833,222.5 101.5,221.167 100.5,219.5 Z"/></g>
<g><path style="opacity:0.051" fill="#849ba8" d="M 104.5,223.5 C 105.167,223.5 105.5,223.833 105.5,224.5C 105.167,224.167 104.833,223.833 104.5,223.5 Z"/></g>
<g><path style="opacity:0.02" fill="#91a4af" d="M 105.5,224.5 C 106.167,224.5 106.5,224.833 106.5,225.5C 106.167,225.167 105.833,224.833 105.5,224.5 Z"/></g>
<g><path style="opacity:0.075" fill="#738a94" d="M 106.5,225.5 C 107.167,225.5 107.5,225.833 107.5,226.5C 107.167,226.167 106.833,225.833 106.5,225.5 Z"/></g>
<g><path style="opacity:0.082" fill="#6e8d97" d="M 107.5,226.5 C 108.167,226.5 108.5,226.833 108.5,227.5C 108.167,227.167 107.833,226.833 107.5,226.5 Z"/></g>
<g><path style="opacity:0.078" fill="#4b5d64" d="M 108.5,227.5 C 109.167,227.5 109.5,227.833 109.5,228.5C 109.167,228.167 108.833,227.833 108.5,227.5 Z"/></g>
<g><path style="opacity:0.004" fill="#69808c" d="M 109.5,228.5 C 110.906,228.973 111.573,229.973 111.5,231.5C 110.094,231.027 109.427,230.027 109.5,228.5 Z"/></g>
<g><path style="opacity:0.078" fill="#707e86" d="M 111.5,231.5 C 112.167,231.5 112.5,231.833 112.5,232.5C 112.167,232.167 111.833,231.833 111.5,231.5 Z"/></g>
<g><path style="opacity:0.071" fill="#657d89" d="M 258.5,228.5 C 259.613,229.946 259.78,231.613 259,233.5C 258.506,231.866 258.34,230.199 258.5,228.5 Z"/></g>
<g><path style="opacity:0.078" fill="#496579" d="M 112.5,232.5 C 113.833,233.167 113.833,233.167 112.5,232.5 Z"/></g>
<g><path style="opacity:0.047" fill="#859aa4" d="M 114.5,235.5 C 113.833,234.167 113.833,234.167 114.5,235.5 Z"/></g>
<g><path style="opacity:0.031" fill="#718391" d="M 114.5,235.5 C 115.338,235.842 115.672,236.508 115.5,237.5C 114.662,237.158 114.328,236.492 114.5,235.5 Z"/></g>
<g><path style="opacity:0.086" fill="#678492" d="M 257.5,235.5 C 258.573,236.251 258.74,237.251 258,238.5C 257.517,237.552 257.351,236.552 257.5,235.5 Z"/></g>
<g><path style="opacity:0.039" fill="#718696" d="M 115.5,237.5 C 116.525,237.897 116.692,238.563 116,239.5C 115.536,238.906 115.369,238.239 115.5,237.5 Z"/></g>
<g><path style="opacity:0.086" fill="#637b8a" d="M 116.5,240.5 C 117.833,241.167 117.833,241.167 116.5,240.5 Z"/></g>
<g><path style="opacity:0.055" fill="#6d8287" d="M 256.5,239.5 C 257.525,239.897 257.692,240.563 257,241.5C 256.536,240.906 256.369,240.239 256.5,239.5 Z"/></g>
<g><path style="opacity:0.086" fill="#587488" d="M 117.5,242.5 C 118.833,243.167 118.833,243.167 117.5,242.5 Z"/></g>
<g><path style="opacity:0.071" fill="#637d8e" d="M 255.5,242.5 C 256.525,242.897 256.692,243.563 256,244.5C 255.536,243.906 255.369,243.239 255.5,242.5 Z"/></g>
<g><path style="opacity:0.012" fill="#8198a6" d="M 119.5,246.5 C 118.475,246.103 118.308,245.437 119,244.5C 119.464,245.094 119.631,245.761 119.5,246.5 Z"/></g>
<g><path style="opacity:0.086" fill="#5b6f7c" d="M 119.5,246.5 C 120.833,247.167 120.833,247.167 119.5,246.5 Z"/></g>
<g><path style="opacity:0.059" fill="#6c7f8c" d="M 254.5,245.5 C 255.525,245.897 255.692,246.563 255,247.5C 254.536,246.906 254.369,246.239 254.5,245.5 Z"/></g>
<g><path style="opacity:0.082" fill="#6e8995" d="M 121.5,249.5 C 120.833,248.167 120.833,248.167 121.5,249.5 Z"/></g>
<g><path style="opacity:0.02" fill="#7d94a1" d="M 253.5,248.5 C 254.525,248.897 254.692,249.563 254,250.5C 253.536,249.906 253.369,249.239 253.5,248.5 Z"/></g>
<g><path style="opacity:0.067" fill="#60767f" d="M 121.5,249.5 C 122.338,249.842 122.672,250.508 122.5,251.5C 121.662,251.158 121.328,250.492 121.5,249.5 Z"/></g>
<g><path style="opacity:0.082" fill="#4f6774" d="M 122.5,251.5 C 123.833,252.167 123.833,252.167 122.5,251.5 Z"/></g>
<g><path style="opacity:0.059" fill="#7f8d94" d="M 252.5,251.5 C 253.833,252.167 253.833,252.167 252.5,251.5 Z"/></g>
<g><path style="opacity:0.078" fill="#708895" d="M 124.5,254.5 C 123.833,253.167 123.833,253.167 124.5,254.5 Z"/></g>
<g><path style="opacity:0.012" fill="#8195a1" d="M 251.5,255.5 C 251.369,254.761 251.536,254.094 252,253.5C 252.692,254.437 252.525,255.103 251.5,255.5 Z"/></g>
<g><path style="opacity:0.012" fill="#7b8e9e" d="M 124.5,254.5 C 125.338,254.842 125.672,255.508 125.5,256.5C 124.662,256.158 124.328,255.492 124.5,254.5 Z"/></g>
<g><path style="opacity:0.071" fill="#778e9b" d="M 125.5,256.5 C 126.167,256.5 126.5,256.833 126.5,257.5C 126.167,257.167 125.833,256.833 125.5,256.5 Z"/></g>
<g><path style="opacity:0.012" fill="#7c8a92" d="M 251.5,255.5 C 251.672,256.492 251.338,257.158 250.5,257.5C 250.328,256.508 250.662,255.842 251.5,255.5 Z"/></g>
<g><path style="opacity:0.016" fill="#7a99a6" d="M 126.5,257.5 C 127.525,257.897 127.692,258.563 127,259.5C 126.536,258.906 126.369,258.239 126.5,257.5 Z"/></g>
<g><path style="opacity:0.02" fill="#798f9d" d="M 250.5,257.5 C 250.672,258.492 250.338,259.158 249.5,259.5C 249.328,258.508 249.662,257.842 250.5,257.5 Z"/></g>
<g><path style="opacity:0.078" fill="#728d9d" d="M 129.5,261.5 C 128.833,260.167 128.833,260.167 129.5,261.5 Z"/></g>
<g><path style="opacity:0.004" fill="#83878a" d="M 249.5,259.5 C 249.672,260.492 249.338,261.158 248.5,261.5C 248.328,260.508 248.662,259.842 249.5,259.5 Z"/></g>
<g><path style="opacity:0.086" fill="#566e7d" d="M 129.5,261.5 C 130.167,261.5 130.5,261.833 130.5,262.5C 130.167,262.167 129.833,261.833 129.5,261.5 Z"/></g>
<g><path style="opacity:0.102" fill="#4d6574" d="M 133.5,260.5 C 134.833,261.167 135.833,262.167 136.5,263.5C 134.5,263.5 133.5,262.5 133.5,260.5 Z"/></g>
<g><path style="opacity:0.086" fill="#5c7e89" d="M 248.5,261.5 C 247.833,262.167 247.833,262.167 248.5,261.5 Z"/></g>
<g><path style="opacity:0.059" fill="#3c5c68" d="M 130.5,262.5 C 131.833,263.167 131.833,263.167 130.5,262.5 Z"/></g>
<g><path style="opacity:0.059" fill="#7f949c" d="M 246.5,263.5 C 247.833,264.167 247.833,264.167 246.5,263.5 Z"/></g>
<g><path style="opacity:0.043" fill="#8798a4" d="M 133.5,266.5 C 132.833,265.167 132.833,265.167 133.5,266.5 Z"/></g>
<g><path style="opacity:0.012" fill="#738795" d="M 246.5,264.5 C 246.672,265.492 246.338,266.158 245.5,266.5C 245.328,265.508 245.662,264.842 246.5,264.5 Z"/></g>
<g><path style="opacity:0.067" fill="#7c94a1" d="M 133.5,266.5 C 134.167,266.5 134.5,266.833 134.5,267.5C 134.167,267.167 133.833,266.833 133.5,266.5 Z"/></g>
<g><path style="opacity:0.071" fill="#778f9c" d="M 245.5,266.5 C 244.833,267.167 244.833,267.167 245.5,266.5 Z"/></g>
<g><path style="opacity:0.024" fill="#525e64" d="M 134.5,267.5 C 135.833,267.5 136.5,268.167 136.5,269.5C 135.5,269.167 134.833,268.5 134.5,267.5 Z"/></g>
<g><path style="opacity:0.075" fill="#445b65" d="M 244.5,267.5 C 243.833,268.167 243.833,268.167 244.5,267.5 Z"/></g>
<g><path style="opacity:0.059" fill="#7f98a3" d="M 136.5,269.5 C 137.167,269.5 137.5,269.833 137.5,270.5C 137.167,270.167 136.833,269.833 136.5,269.5 Z"/></g>
<g><path style="opacity:0.039" fill="#68808d" d="M 243.5,268.5 C 243.672,269.492 243.338,270.158 242.5,270.5C 242.328,269.508 242.662,268.842 243.5,268.5 Z"/></g>
<g><path style="opacity:0.051" fill="#8398a0" d="M 137.5,270.5 C 138.167,270.5 138.5,270.833 138.5,271.5C 138.167,271.167 137.833,270.833 137.5,270.5 Z"/></g>
<g><path style="opacity:0.071" fill="#758997" d="M 242.5,270.5 C 241.833,271.167 241.833,271.167 242.5,270.5 Z"/></g>
<g><path style="opacity:0.012" fill="#96afba" d="M 138.5,271.5 C 139.833,272.167 139.833,272.167 138.5,271.5 Z"/></g>
<g><path style="opacity:0.082" fill="#6c7b87" d="M 241.5,271.5 C 240.833,272.167 240.833,272.167 241.5,271.5 Z"/></g>
<g><path style="opacity:0.055" fill="#385567" d="M 141.5,273.5 C 140.833,272.167 140.833,272.167 141.5,273.5 Z"/></g>
<g><path style="opacity:0.082" fill="#69818e" d="M 240.5,272.5 C 239.833,273.167 239.833,273.167 240.5,272.5 Z"/></g>
<g><path style="opacity:0.086" fill="#506875" d="M 141.5,273.5 C 142.167,273.5 142.5,273.833 142.5,274.5C 142.167,274.167 141.833,273.833 141.5,273.5 Z"/></g>
<g><path style="opacity:0.078" fill="#70828b" d="M 239.5,273.5 C 238.833,274.167 238.833,274.167 239.5,273.5 Z"/></g>
<g><path style="opacity:0.086" fill="#638091" d="M 142.5,274.5 C 143.833,275.167 143.833,275.167 142.5,274.5 Z"/></g>
<g><path style="opacity:0.082" fill="#69818e" d="M 238.5,274.5 C 237.833,275.167 237.833,275.167 238.5,274.5 Z"/></g>
<g><path style="opacity:0.082" fill="#6c7b85" d="M 237.5,275.5 C 236.833,276.167 236.833,276.167 237.5,275.5 Z"/></g>
<g><path style="opacity:0.078" fill="#617e8b" d="M 146.5,277.5 C 145.761,277.631 145.094,277.464 144.5,277C 145.437,276.308 146.103,276.475 146.5,277.5 Z"/></g>
<g><path style="opacity:0.051" fill="#8397a4" d="M 236.5,276.5 C 235.833,277.167 235.833,277.167 236.5,276.5 Z"/></g>
<g><path style="opacity:0.055" fill="#8294a3" d="M 146.5,277.5 C 147.833,278.167 147.833,278.167 146.5,277.5 Z"/></g>
<g><path style="opacity:0.055" fill="#384f5c" d="M 233.5,277.5 C 234.833,278.167 234.833,278.167 233.5,277.5 Z"/></g>
<g><path style="opacity:0.086" fill="#587481" d="M 149.5,279.5 C 148.833,278.167 148.833,278.167 149.5,279.5 Z"/></g>
<g><path style="opacity:0.086" fill="#64737d" d="M 233.5,278.5 C 232.833,279.167 232.833,279.167 233.5,278.5 Z"/></g>
<g><path style="opacity:0.039" fill="#4d6678" d="M 149.5,279.5 C 150.492,279.328 151.158,279.662 151.5,280.5C 150.508,280.672 149.842,280.338 149.5,279.5 Z"/></g>
<g><path style="opacity:0.012" fill="#738b9d" d="M 230.5,280.5 C 230.842,279.662 231.508,279.328 232.5,279.5C 232.158,280.338 231.492,280.672 230.5,280.5 Z"/></g>
<g><path style="opacity:0.055" fill="#828ea1" d="M 151.5,280.5 C 152.833,281.167 152.833,281.167 151.5,280.5 Z"/></g>
<g><path style="opacity:0.071" fill="#788e9e" d="M 230.5,280.5 C 229.833,281.167 229.833,281.167 230.5,280.5 Z"/></g>
<g><path style="opacity:0.082" fill="#6b8388" d="M 153.5,281.5 C 154.833,282.167 154.833,282.167 153.5,281.5 Z"/></g>
<g><path style="opacity:0.075" fill="#586d7a" d="M 226.5,282.5 C 226.897,281.475 227.563,281.308 228.5,282C 227.906,282.464 227.239,282.631 226.5,282.5 Z"/></g>
<g><path style="opacity:0.035" fill="#48637b" d="M 157.5,283.5 C 156.761,283.631 156.094,283.464 155.5,283C 156.437,282.308 157.103,282.475 157.5,283.5 Z"/></g>
<g><path style="opacity:0.067" fill="#638497" d="M 226.5,282.5 C 226.103,283.525 225.437,283.692 224.5,283C 225.094,282.536 225.761,282.369 226.5,282.5 Z"/></g>
<g><path style="opacity:0.086" fill="#687d84" d="M 157.5,283.5 C 158.239,283.369 158.906,283.536 159.5,284C 158.563,284.692 157.897,284.525 157.5,283.5 Z"/></g>
<g><path style="opacity:0.086" fill="#4f6572" d="M 221.5,284.5 C 221.897,283.475 222.563,283.308 223.5,284C 222.906,284.464 222.239,284.631 221.5,284.5 Z"/></g>
<g><path style="opacity:0.071" fill="#516b7a" d="M 160.5,285.5 C 160.897,284.475 161.563,284.308 162.5,285C 161.906,285.464 161.239,285.631 160.5,285.5 Z"/></g>
<g><path style="opacity:0.082" fill="#677e8c" d="M 221.5,284.5 C 220.749,285.573 219.749,285.74 218.5,285C 219.448,284.517 220.448,284.351 221.5,284.5 Z"/></g>
<g><path style="opacity:0.078" fill="#607782" d="M 163.5,286.5 C 163.897,285.475 164.563,285.308 165.5,286C 164.906,286.464 164.239,286.631 163.5,286.5 Z"/></g>
<g><path style="opacity:0.078" fill="#466b74" d="M 213.5,286.5 C 214.251,285.427 215.251,285.26 216.5,286C 215.552,286.483 214.552,286.649 213.5,286.5 Z"/></g>
<g><path style="opacity:0.086" fill="#5d798a" d="M 167.5,287.5 C 168.251,286.427 169.251,286.26 170.5,287C 169.552,287.483 168.552,287.649 167.5,287.5 Z"/></g>
<g><path style="opacity:0.086" fill="#57727d" d="M 206.5,287.5 C 207.946,286.387 209.613,286.22 211.5,287C 209.866,287.494 208.199,287.66 206.5,287.5 Z"/></g>
<g><path style="opacity:0.086" fill="#677986" d="M 173.5,288.5 C 182.991,287.342 192.658,287.175 202.5,288C 192.839,288.5 183.172,288.666 173.5,288.5 Z"/></g>
</svg>
